<svg width="380" height="191" xmlns="http://www.w3.org/2000/svg" xmlns:xlink="http://www.w3.org/1999/xlink"><defs><path id="a" d="M0 55h67V0H0z"/><path id="c" d="M0 55h67V0H0z"/><path d="M54.538 18.057c3.051-2.698 4.612-4.047 5.534-4.616l-.425-.355c-1.562-.141-10.076-.639-15.397-.284-5.605.284-26.75 1.847-29.091 1.989l-4.47 3.338-.922.639c-.142.07-.284.142-.426.142h-.78l-.285.78c.214.64.923 2.558 1.916 4.049h30.156c.07 0 5.818.568 11.636-3.622-9.863 1.704-33.206 1.846-38.812 1.846h-1.135c-.425 0-.71-.283-.71-.71 0-.426.285-.71.71-.71h.781c5.18 0 34.98-.142 41.72-2.486zM6.858 20.33s.07 0 .141-.071c-.07-.213-.141-.355-.141-.355a.45.45 0 010-.426l.567-1.42a.68.68 0 01.639-.497h1.064l.355-.284-4.4-2.912c-.212.426-.354.852-.354 1.065l-.497 5.326c0 .355-.355.64-.71.64H2.318l-.213.284.71.141c.14.071.354.213.425.355.142.143.142.356.071.568l-.71 2.06 2.27-.497 1.988-3.977zm0-7.954c-.355 0-.78.355-.994.782l4.47 2.91c.213-.496.355-.851.355-1.064-.071-.071-.071-.142-.142-.213-.426-.71-1.206-2.13-3.69-2.415zm26.252-2.343l-.638 2.06c2.2-.143 4.328-.285 6.173-.427l-.497-2.06-5.038.427zm6.882-8.38l-6.74.284 1.632.142c.212 0 .426.142.568.355l.638 1.278 3.902-2.06zm-2.199 6.604l-.78-3.48-.923.498c-.141.07-.213.07-.355.07h-.212a.727.727 0 01-.427-.354l-.212-.355-1.277 3.977 4.186-.356zm23.77 4.617c.212.141.354.496.212.852a.726.726 0 01-.355.425c-.142.071-1.135.853-6.74 5.824-5.392 4.829-11.14 5.397-13.41 5.397-.568 0-.852-.07-.994-.07H9.766c-.212 0-.425-.072-.567-.285-.638-.923-1.135-1.989-1.561-2.912l-1.632 3.267c-.07.142-.284.284-.496.355l-3.832.781h-.142a.804.804 0 01-.568-.213c-.142-.213-.212-.497-.142-.71l.852-2.485-1.064-.285a.857.857 0 01-.497-.496c-.07-.285 0-.498.142-.71l1.136-1.421c.141-.213.354-.284.567-.284h.851l.355-4.687a9.737 9.737 0 01.922-2.272c.568-.995 1.42-1.989 2.626-1.989h.142c3.192.426 4.257 2.343 4.754 3.124.07.071.07.142.142.214.07.142.283.426.141 1.065l2.483-1.847a.544.544 0 01.355-.142c.072 0 3.974-.284 9.012-.639l-.781-2.556c-.07-.427.142-.781.497-.923.425-.072.78.142.922.496l.922 2.912c1.774-.142 3.69-.284 5.606-.426l2.909-8.877-10.927-.994c-.355 0-.639-.355-.639-.71.071-.427.355-.71.71-.71l20.009-.71c.354-.071.638.213.71.497a.714.714 0 01-.356.78l-5.038 2.7 1.775 7.456c1.703-.142 3.121-.213 4.044-.284 5.89-.355 15.68.284 15.752.284.141 0 .283.07.425.142l1.278 1.066z" id="e"/><path d="M30.572 1.218L27.11 3.145l-.054.025a19.085 19.085 0 01-6.654 1.486L.638 5.16H.625c-.305 0-.556-.29-.562-.64-.007-.355.239-.66.55-.668l19.759-.49a18.018 18.018 0 006.27-1.386l3.436-1.91c.28-.156.617-.024.754.294.136.32.02.703-.26.858z" id="g"/><path d="M68.593 12.276a.421.421 0 00-.041-.299c-.778-.438-1.067-1.189-1.262-1.941-.334-1.295-1.537-3.113-2.895-3.79C53.062.59 42.183.794 34.988 1.44a17.995 17.995 0 00-6.507 1.855L20.858 7.13l-.128.003c-15.875.33-19.193 4.396-19.608 5.018v4.153c0 .248.184.463.43.502l5.497.763a5.93 5.93 0 01-.19-1.492 5.83 5.83 0 015.859-5.848 5.83 5.83 0 015.86 5.848c0 .527-.07 1.037-.2 1.52h31.269a6.14 6.14 0 01-.192-1.52 6.018 6.018 0 016.05-6.036 6.017 6.017 0 016.047 6.036c0 .395-.04.78-.11 1.153l5.83-1.04a.631.631 0 00.497-.474l.824-3.44zM8.031 16.142c0 2.558 2.124 4.678 4.687 4.678s4.686-2.12 4.686-4.678c0-2.559-2.123-4.679-4.686-4.679a4.668 4.668 0 00-4.687 4.68zm42.635.002c0 2.641 2.192 4.83 4.839 4.83 2.644 0 4.836-2.19 4.836-4.83s-2.192-4.829-4.836-4.829a4.818 4.818 0 00-4.839 4.829zm18.194-.169a1.758 1.758 0 01-1.394 1.318l-6.346 1.033a6.02 6.02 0 01-5.617 3.788 6.024 6.024 0 01-5.449-3.397H17.952a5.833 5.833 0 01-5.236 3.207 5.834 5.834 0 01-5.26-3.259l-6.052-.75h-.013A1.64 1.64 0 010 16.304v-4.422l.048-.109c.1-.219 2.606-5.36 20.531-5.757l7.396-3.721a19.125 19.125 0 016.911-1.97c7.332-.659 18.422-.864 30.01 4.918 1.663.83 3.074 2.945 3.48 4.512.171.661.348 1.061.788 1.277l.114.057.074.085c.322.372.447.882.33 1.36l-.822 3.44z" id="k"/><radialGradient cx="100%" cy="82.844%" fx="100%" fy="82.844%" r="309.247%" gradientTransform="matrix(.31716 0 0 1 .683 0)" id="j"><stop stop-color="#28628C" offset="0%"/><stop stop-color="#00487C" offset="100%"/></radialGradient><linearGradient x1="50%" y1="0%" x2="50%" y2="100%" id="i"><stop stop-color="#FFF" stop-opacity=".5" offset="0%"/><stop stop-opacity=".5" offset="100%"/></linearGradient></defs><g fill="none" fill-rule="evenodd"><circle stroke="#FCB61A" stroke-width="3.5" fill="#FFF" fill-rule="nonzero" cx="190.5" cy="116.5" r="61.5"/><g transform="translate(154 89)"><mask id="b" fill="#fff"><use xlink:href="#a"/></mask><g mask="url(#b)"><g fill-rule="nonzero" transform="translate(5 1)"><path d="M61.519 22.273l-4.967-3.67V2.246c0-.643-.524-1.165-1.17-1.165H43.974c-.646 0-1.17.522-1.17 1.165v6.194L31.694.23a1.175 1.175 0 00-1.396 0L.473 22.273a1.161 1.161 0 00-.242 1.63 1.174 1.174 0 001.638.24l3.569-2.637v12.409c0 .643.524 1.164 1.17 1.164.647 0 1.17-.521 1.17-1.164v-14.14l23.218-17.16L54.21 19.775v.592c0 .01.003.018.003.028v26.157h-13.85V36.314c0-5.14-4.203-9.32-9.368-9.32s-9.367 4.18-9.367 9.32v10.238H6.609c-.647 0-1.171.522-1.171 1.165s.524 1.165 1.17 1.165h48.777c.646 0 1.17-.522 1.17-1.165v-26.21l3.568 2.636a1.17 1.17 0 001.638-.24 1.16 1.16 0 00-.242-1.63zM23.97 36.314c0-3.855 3.153-6.991 7.026-6.991 3.874 0 7.026 3.136 7.026 6.991v10.238H23.97V36.314zm21.175-26.143v-6.76h9.066v13.461l-9.066-6.7z" stroke="#00487C" stroke-width=".5" fill="#00487C"/><path d="M36.47 16.7c0-3.002-2.456-5.446-5.474-5.446-3.018 0-5.473 2.443-5.473 5.447 0 3.003 2.455 5.446 5.473 5.446s5.473-2.443 5.473-5.446zm-8.606 0a3.128 3.128 0 013.132-3.116 3.128 3.128 0 013.132 3.117 3.128 3.128 0 01-3.132 3.117 3.128 3.128 0 01-3.132-3.117z" stroke="#FFB81C" stroke-width=".7" fill="#FFB81C"/><ellipse fill="#FFB81C" cx="34.298" cy="39.428" rx="1.597" ry="1.589"/></g></g></g><g transform="translate(153 89)"><mask id="d" fill="#fff"><use xlink:href="#c"/></mask><path d="M22.917 48.089a1.084 1.084 0 00-.224-.345l-.006-.008-5.343-5.42a1.052 1.052 0 00-1.503 0 1.089 1.089 0 000 1.525l3.53 3.581H9.063A1.07 1.07 0 008 48.501c0 .594.476 1.078 1.063 1.078h10.305l-3.53 3.58a1.087 1.087 0 000 1.525 1.053 1.053 0 001.503 0l5.339-5.416c.104-.101.185-.224.24-.361l.003-.012c.048-.123.077-.256.077-.395v-.004c0-.136-.03-.267-.074-.388-.005-.005-.005-.012-.009-.02z" stroke="#FFB81C" stroke-width="1.3" fill="#FFB81C" fill-rule="nonzero" mask="url(#d)"/></g><path d="M298.563 120.874c.212.141.354.496.212.852a.726.726 0 01-.355.425c-.142.071-1.135.853-6.74 5.824-5.392 4.829-11.14 5.397-13.41 5.397-.568 0-.852-.07-.994-.07h-30.51c-.212 0-.425-.072-.567-.285-.638-.923-1.135-1.989-1.561-2.912l-1.632 3.267c-.07.142-.284.284-.496.355l-3.832.781h-.142a.804.804 0 01-.568-.213c-.142-.213-.212-.497-.142-.71l.852-2.485-1.064-.285a.857.857 0 01-.497-.496c-.07-.285 0-.498.142-.71l1.136-1.421c.141-.213.354-.284.567-.284h.851l.355-4.687a9.737 9.737 0 01.922-2.272c.568-.995 1.42-1.989 2.626-1.989h.142c3.192.426 4.257 2.343 4.754 3.124.07.071.07.142.142.214.07.142.283.426.141 1.065l2.483-1.847a.544.544 0 01.355-.142c.072 0 3.974-.284 9.012-.639l-.781-2.556c-.07-.427.142-.781.497-.923.425-.072.78.142.922.496l.922 2.912c1.774-.142 3.69-.284 5.606-.426l2.909-8.877-10.927-.994c-.355 0-.639-.355-.639-.71.071-.427.355-.71.71-.71l20.009-.71c.354-.071.638.213.71.497a.714.714 0 01-.356.78l-5.038 2.7 1.775 7.456c1.703-.142 3.121-.213 4.044-.284 5.89-.355 15.68.284 15.752.284.141 0 .283.07.425.142l1.278 1.066z" fill="#FFF" fill-rule="nonzero"/><path d="M291.538 126.057c3.051-2.698 4.612-4.047 5.534-4.616l-.425-.355c-1.562-.141-10.076-.639-15.397-.284-5.605.284-26.75 1.847-29.091 1.989l-4.47 3.338-.922.639c-.142.07-.284.142-.426.142h-.78l-.285.78c.214.64.923 2.558 1.916 4.049h30.156c.07 0 5.818.568 11.636-3.622-9.863 1.704-33.206 1.846-38.812 1.846h-1.135c-.425 0-.71-.283-.71-.71 0-.426.285-.71.71-.71h.781c5.18 0 34.98-.142 41.72-2.486zm-47.68 2.273s.07 0 .141-.071c-.07-.213-.141-.355-.141-.355a.45.45 0 010-.426l.567-1.42a.68.68 0 01.639-.497h1.064l.355-.284-4.4-2.912c-.212.426-.354.852-.354 1.065l-.497 5.326c0 .355-.355.64-.71.64h-1.205l-.213.284.71.141c.14.071.354.213.425.355.142.143.142.356.071.568l-.71 2.06 2.27-.497 1.988-3.977zm0-7.954c-.355 0-.78.355-.994.782l4.47 2.91c.213-.496.355-.851.355-1.064-.071-.071-.071-.142-.142-.213-.426-.71-1.206-2.13-3.69-2.415zm26.252-2.343l-.638 2.06c2.2-.143 4.328-.285 6.173-.427l-.497-2.06-5.038.427zm6.882-8.38l-6.74.284 1.632.142c.212 0 .426.142.568.355l.638 1.278 3.902-2.06zm-2.199 6.604l-.78-3.48-.923.498c-.141.07-.213.07-.355.07h-.212a.727.727 0 01-.427-.354l-.212-.355-1.277 3.977 4.186-.356zm23.77 4.617c.212.141.354.496.212.852a.726.726 0 01-.355.425c-.142.071-1.135.853-6.74 5.824-5.392 4.829-11.14 5.397-13.41 5.397-.568 0-.852-.07-.994-.07h-30.51c-.212 0-.425-.072-.567-.285-.638-.923-1.135-1.989-1.561-2.912l-1.632 3.267c-.07.142-.284.284-.496.355l-3.832.781h-.142a.804.804 0 01-.568-.213c-.142-.213-.212-.497-.142-.71l.852-2.485-1.064-.285a.857.857 0 01-.497-.496c-.07-.285 0-.498.142-.71l1.136-1.421c.141-.213.354-.284.567-.284h.851l.355-4.687a9.737 9.737 0 01.922-2.272c.568-.995 1.42-1.989 2.626-1.989h.142c3.192.426 4.257 2.343 4.754 3.124.07.071.07.142.142.214.07.142.283.426.141 1.065l2.483-1.847a.544.544 0 01.355-.142c.072 0 3.974-.284 9.012-.639l-.781-2.556c-.07-.427.142-.781.497-.923.425-.072.78.142.922.496l.922 2.912c1.774-.142 3.69-.284 5.606-.426l2.909-8.877-10.927-.994c-.355 0-.639-.355-.639-.71.071-.427.355-.71.71-.71l20.009-.71c.354-.071.638.213.71.497a.714.714 0 01-.356.78l-5.038 2.7 1.775 7.456c1.703-.142 3.121-.213 4.044-.284 5.89-.355 15.68.284 15.752.284.141 0 .283.07.425.142l1.278 1.066z" fill="#FFF" fill-rule="nonzero" stroke="#00487C" stroke-width=".5"/><g transform="translate(237 108)"><mask id="f" fill="#fff"><use xlink:href="#e"/></mask><path fill="#00487C" fill-rule="nonzero" mask="url(#f)" d="M.055 26.524h61.81V.182H.055z"/></g><g><path d="M141.352 123.38l-.074-.085-.114-.056c-.44-.217-.617-.616-.788-1.278-.406-1.566-1.817-3.683-3.48-4.511-11.588-5.783-22.678-5.578-30.01-4.92-2.416.217-4.742.88-6.911 1.971l-7.395 3.721c-17.926.398-20.433 5.538-20.532 5.757l-.048.11v4.42c0 .8.598 1.491 1.39 1.61l.014.002 6.051.75a5.834 5.834 0 005.261 3.259c2.301 0 4.275-1.298 5.236-3.208h32.102a6.024 6.024 0 005.449 3.397c2.56 0 4.73-1.56 5.618-3.788l6.345-1.033a1.758 1.758 0 001.394-1.318l.823-3.44a1.537 1.537 0 00-.33-1.36" fill="#FFFFFE" fill-rule="nonzero"/><path d="M124.995 115.635l-3.462 1.926-.053.026a19.085 19.085 0 01-6.655 1.486l-19.763.503h-.013c-.306 0-.557-.289-.562-.64-.008-.355.238-.66.55-.668l19.758-.49a18.018 18.018 0 006.27-1.385l3.437-1.911c.28-.155.617-.023.753.295.137.32.02.703-.26.858z" stroke="#00487C"/><g transform="translate(94.423 114.417)"><mask id="h" fill="#fff"><use xlink:href="#g"/></mask><path fill="#1F4067" fill-rule="nonzero" mask="url(#h)" d="M1.044 5.219h30.853V-.022H1.044z"/></g><g><g fill-rule="nonzero"><path d="M140.593 124.481a.421.421 0 00-.041-.299c-.778-.438-1.067-1.188-1.262-1.94-.334-1.296-1.537-3.113-2.895-3.79-11.333-5.657-22.212-5.453-29.407-4.807a17.995 17.995 0 00-6.507 1.855l-7.623 3.835-.128.003c-15.875.33-19.193 4.396-19.608 5.018v4.153c0 .249.184.464.43.502l5.497.763a5.93 5.93 0 01-.19-1.492 5.83 5.83 0 015.859-5.848 5.83 5.83 0 015.86 5.848c0 .527-.07 1.037-.2 1.521h31.269a6.14 6.14 0 01-.192-1.52 6.018 6.018 0 016.05-6.037 6.017 6.017 0 016.047 6.036c0 .395-.04.78-.11 1.153l5.83-1.04a.631.631 0 00.497-.474l.824-3.44zm-60.562 3.866c0 2.558 2.124 4.678 4.687 4.678s4.686-2.12 4.686-4.678c0-2.559-2.123-4.678-4.686-4.678a4.668 4.668 0 00-4.687 4.678zm42.635.002c0 2.642 2.192 4.83 4.839 4.83 2.644 0 4.836-2.189 4.836-4.83 0-2.64-2.192-4.829-4.836-4.829a4.818 4.818 0 00-4.839 4.83zm18.194-.169a1.758 1.758 0 01-1.394 1.318l-6.346 1.033a6.02 6.02 0 01-5.617 3.788 6.024 6.024 0 01-5.449-3.397H89.952a5.833 5.833 0 01-5.236 3.208 5.834 5.834 0 01-5.26-3.26l-6.052-.749-.013-.002A1.64 1.64 0 0172 128.51v-4.42l.048-.11c.1-.219 2.606-5.359 20.531-5.757l7.396-3.72a19.125 19.125 0 016.911-1.972c7.332-.658 18.422-.863 30.01 4.92 1.663.828 3.074 2.945 3.48 4.51.171.663.348 1.062.788 1.279l.114.056.074.085c.322.373.447.882.33 1.36l-.822 3.44z" fill="#D8D8D8"/><path d="M68.593 12.276a.421.421 0 00-.041-.299c-.778-.438-1.067-1.189-1.262-1.941-.334-1.295-1.537-3.113-2.895-3.79C53.062.59 42.183.794 34.988 1.44a17.995 17.995 0 00-6.507 1.855L20.858 7.13l-.128.003c-15.875.33-19.193 4.396-19.608 5.018v4.153c0 .248.184.463.43.502l5.497.763a5.93 5.93 0 01-.19-1.492 5.83 5.83 0 015.859-5.848 5.83 5.83 0 015.86 5.848c0 .527-.07 1.037-.2 1.52h31.269a6.14 6.14 0 01-.192-1.52 6.018 6.018 0 016.05-6.036 6.017 6.017 0 016.047 6.036c0 .395-.04.78-.11 1.153l5.83-1.04a.631.631 0 00.497-.474l.824-3.44zM8.031 16.142c0 2.558 2.124 4.678 4.687 4.678s4.686-2.12 4.686-4.678c0-2.559-2.123-4.679-4.686-4.679a4.668 4.668 0 00-4.687 4.68zm42.635.002c0 2.641 2.192 4.83 4.839 4.83 2.644 0 4.836-2.19 4.836-4.83s-2.192-4.829-4.836-4.829a4.818 4.818 0 00-4.839 4.829zm18.194-.169a1.758 1.758 0 01-1.394 1.318l-6.346 1.033a6.02 6.02 0 01-5.617 3.788 6.024 6.024 0 01-5.449-3.397H17.952a5.833 5.833 0 01-5.236 3.207 5.834 5.834 0 01-5.26-3.259l-6.052-.75h-.013A1.64 1.64 0 010 16.304v-4.422l.048-.109c.1-.219 2.606-5.36 20.531-5.757l7.396-3.721a19.125 19.125 0 016.911-1.97c7.332-.659 18.422-.864 30.01 4.918 1.663.83 3.074 2.945 3.48 4.512.171.661.348 1.061.788 1.277l.114.057.074.085c.322.372.447.882.33 1.36l-.822 3.44z" fill="url(#i)" transform="translate(72 112.205)"/><path d="M68.593 12.276a.421.421 0 00-.041-.299c-.778-.438-1.067-1.189-1.262-1.941-.334-1.295-1.537-3.113-2.895-3.79C53.062.59 42.183.794 34.988 1.44a17.995 17.995 0 00-6.507 1.855L20.858 7.13l-.128.003c-15.875.33-19.193 4.396-19.608 5.018v4.153c0 .248.184.463.43.502l5.497.763a5.93 5.93 0 01-.19-1.492 5.83 5.83 0 015.859-5.848 5.83 5.83 0 015.86 5.848c0 .527-.07 1.037-.2 1.52h31.269a6.14 6.14 0 01-.192-1.52 6.018 6.018 0 016.05-6.036 6.017 6.017 0 016.047 6.036c0 .395-.04.78-.11 1.153l5.83-1.04a.631.631 0 00.497-.474l.824-3.44zM8.031 16.142c0 2.558 2.124 4.678 4.687 4.678s4.686-2.12 4.686-4.678c0-2.559-2.123-4.679-4.686-4.679a4.668 4.668 0 00-4.687 4.68zm42.635.002c0 2.641 2.192 4.83 4.839 4.83 2.644 0 4.836-2.19 4.836-4.83s-2.192-4.829-4.836-4.829a4.818 4.818 0 00-4.839 4.829zm18.194-.169a1.758 1.758 0 01-1.394 1.318l-6.346 1.033a6.02 6.02 0 01-5.617 3.788 6.024 6.024 0 01-5.449-3.397H17.952a5.833 5.833 0 01-5.236 3.207 5.834 5.834 0 01-5.26-3.259l-6.052-.75h-.013A1.64 1.64 0 010 16.304v-4.422l.048-.109c.1-.219 2.606-5.36 20.531-5.757l7.396-3.721a19.125 19.125 0 016.911-1.97c7.332-.659 18.422-.864 30.01 4.918 1.663.83 3.074 2.945 3.48 4.512.171.661.348 1.061.788 1.277l.114.057.074.085c.322.372.447.882.33 1.36l-.822 3.44z" fill="url(#i)" transform="translate(72 112.205)"/><path d="M68.593 12.276a.421.421 0 00-.041-.299c-.778-.438-1.067-1.189-1.262-1.941-.334-1.295-1.537-3.113-2.895-3.79C53.062.59 42.183.794 34.988 1.44a17.995 17.995 0 00-6.507 1.855L20.858 7.13l-.128.003c-15.875.33-19.193 4.396-19.608 5.018v4.153c0 .248.184.463.43.502l5.497.763a5.93 5.93 0 01-.19-1.492 5.83 5.83 0 015.859-5.848 5.83 5.83 0 015.86 5.848c0 .527-.07 1.037-.2 1.52h31.269a6.14 6.14 0 01-.192-1.52 6.018 6.018 0 016.05-6.036 6.017 6.017 0 016.047 6.036c0 .395-.04.78-.11 1.153l5.83-1.04a.631.631 0 00.497-.474l.824-3.44zM8.031 16.142c0 2.558 2.124 4.678 4.687 4.678s4.686-2.12 4.686-4.678c0-2.559-2.123-4.679-4.686-4.679a4.668 4.668 0 00-4.687 4.68zm42.635.002c0 2.641 2.192 4.83 4.839 4.83 2.644 0 4.836-2.19 4.836-4.83s-2.192-4.829-4.836-4.829a4.818 4.818 0 00-4.839 4.829zm18.194-.169a1.758 1.758 0 01-1.394 1.318l-6.346 1.033a6.02 6.02 0 01-5.617 3.788 6.024 6.024 0 01-5.449-3.397H17.952a5.833 5.833 0 01-5.236 3.207 5.834 5.834 0 01-5.26-3.259l-6.052-.75h-.013A1.64 1.64 0 010 16.304v-4.422l.048-.109c.1-.219 2.606-5.36 20.531-5.757l7.396-3.721a19.125 19.125 0 016.911-1.97c7.332-.659 18.422-.864 30.01 4.918 1.663.83 3.074 2.945 3.48 4.512.171.661.348 1.061.788 1.277l.114.057.074.085c.322.372.447.882.33 1.36l-.822 3.44z" fill="url(#j)" stroke="#00487C" transform="translate(72 112.205)"/></g><g transform="translate(72 112.205)"><mask id="l" fill="#fff"><use xlink:href="#k"/></mask><path fill="#1F4067" fill-rule="nonzero" mask="url(#l)" d="M0 22.158h69.747V0H0z"/></g></g></g></g></svg>