<svg width="380" height="191" xmlns="http://www.w3.org/2000/svg" xmlns:xlink="http://www.w3.org/1999/xlink"><defs><path id="a" d="M0 .57v6.853h9.353V.57z"/><path id="c" d="M.277.64h3.468V4.11H.277z"/><path id="e" d="M.256.711h3.697v3.851H.256z"/></defs><g fill="none" fill-rule="evenodd"><g fill-rule="nonzero"><path d="M69.148 52c-.493 0-.948-.312-1.098-.798a1.12 1.12 0 01.765-1.401.621.621 0 00.437-.447.607.607 0 00-.183-.587 2.824 2.824 0 01-.818-2.731 2.875 2.875 0 012.008-2.07.63.63 0 00.427-.443.606.606 0 00-.18-.588 1.105 1.105 0 01-.035-1.588 1.167 1.167 0 011.625-.035 2.824 2.824 0 01.821 2.74c-.24.978-1.007 1.772-2 2.067a.603.603 0 00-.254 1.03 2.834 2.834 0 01.822 2.735 2.915 2.915 0 01-2.003 2.068 1.178 1.178 0 01-.334.048" fill="#559199"/><path d="M25.229 81c-.516 0-.988-.342-1.127-.863a2.959 2.959 0 01.761-2.858 3.007 3.007 0 012.86-.778c.177.05.426.028.612-.16a.64.64 0 00.166-.619 2.974 2.974 0 01.763-2.853 3.004 3.004 0 012.861-.775c.626.162 1 .797.837 1.419a1.17 1.17 0 01-1.424.833.643.643 0 00-.618.165c-.16.16-.22.391-.16.617a2.96 2.96 0 01-.766 2.85 2.97 2.97 0 01-2.863.774.647.647 0 00-.612.168.639.639 0 00-.16.614 1.163 1.163 0 01-.827 1.425 1.118 1.118 0 01-.303.041" fill="#FF07C2"/><path d="M50 105a2 2 0 11-.001 4.001A2 2 0 0150 105" fill="#0089F1"/><path d="M107.41 104.754l.068.001c1.01 0 1.89-.655 2.189-1.634a2.344 2.344 0 00-.952-2.638l-1.305 4.271zm.068 1.246c-.353 0-.705-.054-1.045-.16a.62.62 0 01-.405-.778l1.717-5.623a.615.615 0 01.77-.412c1.856.584 2.9 2.584 2.328 4.46a3.51 3.51 0 01-3.365 2.513z" fill="#51B8F2"/><path d="M14.247 35.164c.052.343.204.67.447.953.368.43.902.706 1.506.779 1.06.131 2.017-.395 2.413-1.199l-4.366-.533zM16.517 38c-.16 0-.322-.01-.485-.03-.926-.111-1.75-.536-2.316-1.197-.568-.662-.811-1.48-.682-2.304.046-.296.35-.508.69-.463l5.747.7a.63.63 0 01.404.21c.098.114.141.26.12.402C19.754 36.847 18.26 38 16.517 38z" fill="#FF7C3A"/></g><path d="M194.593 89.085c0-.422.291-.812.745-.94.555-.158 1.141.135 1.31.654a.56.56 0 00.417.375.599.599 0 00.548-.157 2.795 2.795 0 012.552-.7c.925.206 1.667.866 1.934 1.72.045.136.18.313.414.365a.598.598 0 00.55-.153 1.099 1.099 0 011.484-.03.94.94 0 01.032 1.39 2.795 2.795 0 01-2.56.704c-.914-.206-1.656-.862-1.931-1.713a.543.543 0 00-.412-.371.602.602 0 00-.552.154c-.66.642-1.638.91-2.554.704-.92-.21-1.658-.869-1.933-1.716a.93.93 0 01-.044-.286" fill="#559199" fill-rule="nonzero"/><g transform="rotate(90 47.535 84.535)"><mask id="b" fill="#fff"><use xlink:href="#a"/></mask><path d="M8.28 7.423l-.053-.001A1.06 1.06 0 017.208 6.32a.57.57 0 00-.266-.511.606.606 0 00-.577-.025 2.785 2.785 0 01-2.72-.14 2.644 2.644 0 01-1.24-2.378.583.583 0 00-.266-.504.588.588 0 00-.58-.025A1.08 1.08 0 01.118 2.28 1.044 1.044 0 01.583.864a2.78 2.78 0 012.72.132 2.683 2.683 0 011.243 2.37.558.558 0 00.262.51.61.61 0 00.593.031 2.773 2.773 0 012.708.136A2.673 2.673 0 019.35 6.42a1.065 1.065 0 01-1.07 1.003" fill="#559199" fill-rule="nonzero" mask="url(#b)"/></g><g transform="rotate(90 75.942 146.058)"><mask id="d" fill="#fff"><use xlink:href="#c"/></mask><path d="M2.011.64a1.735 1.735 0 110 3.47 1.735 1.735 0 010-3.47" fill="#FF7C3A" fill-rule="nonzero" mask="url(#d)"/></g><path d="M167.185 102.663a1.713 1.713 0 11-3.426-.001 1.713 1.713 0 013.426 0" fill="#C727E2" fill-rule="nonzero"/><path d="M146.136 123.81l-.001.07c0 1.039.642 1.943 1.6 2.25.993.318 2.043-.113 2.582-.978l-4.18-1.341zm-1.22.07c0-.363.053-.725.158-1.074.1-.335.44-.52.761-.416l5.504 1.765c.155.05.284.16.36.31a.66.66 0 01.043.482c-.571 1.906-2.529 2.98-4.365 2.392-1.471-.47-2.46-1.861-2.46-3.459z" fill="#51B8F2" fill-rule="nonzero"/><path d="M250.476 35.79c-.367.05-.717.2-1.02.437-.46.36-.756.884-.834 1.475a2.246 2.246 0 001.283 2.362l.57-4.274zm-3.036 2.223c0-.001 0 0 0 0 0-.158.01-.316.031-.476a3.43 3.43 0 011.282-2.267 3.226 3.226 0 012.467-.668.591.591 0 01.496.677l-.75 5.624a.602.602 0 01-.224.396.568.568 0 01-.431.117c-1.637-.234-2.871-1.698-2.871-3.403z" fill="#FF7C3A" fill-rule="nonzero"/><g><path d="M303.5 35.729c0-.516.342-.988.863-1.127a2.959 2.959 0 012.858.761 3.007 3.007 0 01.778 2.86.626.626 0 00.16.612.64.64 0 00.619.166 2.974 2.974 0 012.853.763 3.004 3.004 0 01.775 2.861c-.162.626-.797 1-1.419.837a1.17 1.17 0 01-.833-1.424.643.643 0 00-.165-.618.634.634 0 00-.617-.16 2.96 2.96 0 01-2.85-.766 2.97 2.97 0 01-.774-2.863.647.647 0 00-.168-.612.639.639 0 00-.614-.16 1.163 1.163 0 01-1.425-.827 1.118 1.118 0 01-.041-.303" fill="#FF07C2" fill-rule="nonzero"/><path d="M277.5 62.5a2 2 0 110-3.999 2 2 0 010 3.999z" fill="#0089F1" fill-rule="nonzero"/><g transform="rotate(90 152 210.5)"><mask id="f" fill="#fff"><use xlink:href="#e"/></mask><path d="M2.104.71c1.021 0 1.85.863 1.85 1.926 0 1.064-.829 1.926-1.85 1.926-1.02 0-1.848-.862-1.848-1.926 0-1.063.828-1.925 1.848-1.925" fill="#FF7C3A" fill-rule="nonzero" mask="url(#f)"/></g><path d="M261.036 84.938a2.556 2.556 0 00-1.199.554 2.578 2.578 0 00-.933 1.756 2.57 2.57 0 001.641 2.693l.491-5.003zm-3.536 2.575c0-.135.007-.266.02-.4a3.978 3.978 0 011.436-2.703 3.937 3.937 0 012.92-.89c.381.04.642.385.623.764l-.648 6.584a.696.696 0 01-.762.629 3.983 3.983 0 01-3.589-3.984z" fill="#559199" fill-rule="nonzero"/><path d="M349.044 24.925a2.47 2.47 0 00-1.19.51 2.601 2.601 0 00-.974 1.722 2.623 2.623 0 001.499 2.758l.665-4.99zM345.5 27.52c0-.001 0 0 0 0 0-.183.012-.368.037-.555.14-1.058.67-2 1.497-2.647a3.766 3.766 0 012.88-.78c.37.054.634.4.579.79l-.876 6.567a.703.703 0 01-.262.463.663.663 0 01-.503.136c-1.91-.274-3.352-1.983-3.352-3.974z" fill="#FF7C3A" fill-rule="nonzero"/></g><circle stroke="#FCB61A" stroke-width="3.5" fill="#FFF" fill-rule="nonzero" cx="190.5" cy="116.5" r="61.5"/><g fill-rule="nonzero"><path d="M210.983 110.883h-4.134V97.68a.987.987 0 00-.985-.985h-5.02a.987.987 0 00-.984.985v13.104h-6.595V97.68a.987.987 0 00-.985-.985h-5.02a.987.987 0 00-.984.985v13.104H179.878V97.68a.987.987 0 00-.985-.985h-5.02a.987.987 0 00-.984.985v13.104h-4.135c-2.362 0-4.33 1.97-4.33 4.336v24.532c0 2.365 1.968 4.336 4.33 4.336h42.13c2.363 0 4.331-1.97 4.331-4.336V115.12c.099-2.365-1.87-4.237-4.232-4.237zm-9.155-12.217h3.15v12.217h-3.15V98.666zm-13.485 0h3.15v12.217h-3.15V98.666zm-13.486 0h3.15v12.217h-3.15V98.666zm38.587 40.986c0 1.281-1.083 2.365-2.363 2.365h-42.228c-1.28 0-2.362-1.084-2.362-2.365v-11.527c1.082.098 2.165.296 3.15.69 1.082.394 2.165.886 3.248 1.379 2.264 1.084 4.528 2.069 6.989 2.069.295 0 .689 0 .984-.099 2.953-.394 5.315-2.266 7.58-4.04 2.263-1.773 4.33-3.546 6.89-3.645 1.87-.098 3.642.69 5.61 1.478.296.099.69.296.985.394 3.74 1.577 7.58 2.562 11.517 3.153v10.148zm0-12.02c-3.74-.59-7.383-1.478-10.828-2.955-.295-.099-.59-.296-.984-.395-2.068-.886-4.135-1.773-6.497-1.675-3.15.198-5.61 2.168-7.973 4.04-2.166 1.774-4.135 3.35-6.595 3.645-2.363.296-4.627-.788-6.99-1.871-1.082-.493-2.263-1.084-3.444-1.478-1.182-.394-2.461-.69-3.74-.789V115.12c0-1.281 1.082-2.365 2.362-2.365h42.13c1.279 0 2.362 1.084 2.362 2.365v12.512h.197z" stroke="#00487C" fill="#00487C"/><path d="M176.468 94.944c1.834 0 3.282-1.47 3.282-3.333 0-2.45-2.317-5.98-2.51-6.371a.995.995 0 00-1.545 0c-.29.392-2.51 3.92-2.51 6.37-.096 1.765 1.449 3.334 3.283 3.334z" stroke="#FFB81C" stroke-width=".5" fill="#FFB81C"/><path d="M176.465 87.5c.716 1.32 1.533 3.049 1.533 4.167 0 .813-.715 1.525-1.533 1.525-.817 0-1.532-.712-1.532-1.525 0-1.118.817-2.846 1.532-4.168z" stroke="#FFB81C" stroke-width=".5" fill="#FFF"/><path d="M190.04 94.944c1.835 0 3.284-1.47 3.284-3.333 0-2.45-2.318-5.98-2.511-6.371a.996.996 0 00-1.546 0c-.29.392-2.511 3.92-2.511 6.37 0 1.765 1.449 3.334 3.284 3.334z" stroke="#FFB81C" stroke-width=".5" fill="#FFB81C"/><path d="M190.04 87.5c.715 1.32 1.533 3.049 1.533 4.167 0 .813-.715 1.525-1.533 1.525-.817 0-1.532-.712-1.532-1.525 0-1.118.817-2.846 1.532-4.168z" stroke="#FFB81C" stroke-width=".5" fill="#FFF"/><path d="M203.177 94.944c1.835 0 3.284-1.47 3.284-3.333 0-2.45-2.318-5.98-2.511-6.371a.996.996 0 00-1.546 0c-.29.392-2.511 3.92-2.511 6.37 0 1.765 1.449 3.334 3.284 3.334z" stroke="#FFB81C" stroke-width=".5" fill="#FFB81C"/><path d="M203.615 87.5c.715 1.32 1.532 3.049 1.532 4.167 0 .813-.715 1.525-1.532 1.525-.818 0-1.533-.712-1.533-1.525 0-1.118.818-2.846 1.533-4.168z" stroke="#FFB81C" stroke-width=".5" fill="#FFF"/></g></g></svg>