<svg width="380" height="191" xmlns="http://www.w3.org/2000/svg"><g fill="none" fill-rule="nonzero"><circle stroke="#FCB61A" stroke-width="3.5" fill="#FFF" cx="190.5" cy="116.5" r="61.5"/><path d="M160.306 134.277c.077 0 .077.075.153.075 0 0 .077 0 .077.075L198.204 146h.23s0 0 0 0 0 0 0 0 0 0 0 0c.076 0 .153 0 .23-.075h.152s.077 0 .077-.075c0 0 .077 0 .077-.075v-.076s.076-.075.076-.15.077-.075.077-.15v-.075l4.9-15.33 16.537-6.838a.914.914 0 00.383-.376c.076-.15.076-.376 0-.601l-15.695-36.672a.684.684 0 00-.46-.45c-.153-.076-.383-.076-.612 0l-25.112 10.37a.914.914 0 00-.383.375c-.077.15-.077.376 0 .601l8.422 19.689-18.834-5.786h-.307-.076c-.077 0-.153 0-.153.075 0 0-.077 0-.077.075-.076 0-.076.075-.153.075l-.077.075v.075c0 .075-.076.075-.076.15v.076L160 133.45v.526c0 .075.077.075.077.15s.076.075.076.075c.077 0 .153 0 .153.075zm8.04-21.717l13.474 15.18-19.906 4.884 6.431-20.064zm29.781 31.186l-13.55-15.18 19.905-4.884-6.355 20.064zm-15.235-14.73l13.168 14.73-32.462-9.995 19.294-4.734zm-2.527-32.462l23.734-9.77 15.16 35.545-14.624 6.012 1.761-5.486v-.075-.15-.076-.075c0-.075 0-.075-.077-.15 0 0 0-.075-.076-.075 0-.075-.077-.075-.077-.15l-.076-.076c-.077-.075-.153-.075-.23-.15l-1.914-.601 9.264-3.833c.383-.15.536-.6.383-.976-.153-.376-.613-.602-.996-.376l-10.795 4.433c-.076 0-.076.076-.076.076l-6.814-2.105 16.001-6.612c.383-.15.536-.602.383-.977-.153-.376-.613-.601-.995-.376l-17.686 7.29-3.598-1.128-8.652-20.14zm11.944 22.77c.076 0 .076 0 .153.074l10.336 3.156-19.37 4.735-13.092-14.73 21.973 6.764z" stroke="#00487C" stroke-width="1.3" fill="#00487C"/><path d="M196.5 102.936l1.583 3.726c-.87-.073-1.662-.511-1.978-1.315-.158-.365-.633-.584-1.029-.438-.395.146-.632.584-.474.95.395.876 1.107 1.534 2.057 1.899.474.22 1.028.292 1.503.292.158 0 .316 0 .554-.073l.237.585c.158.292.396.438.712.438.08 0 .158 0 .317-.073.395-.146.633-.585.474-.95l-.237-.511c1.503-.877 2.215-2.703 1.503-4.31-.395-.877-1.107-1.535-2.057-1.9a4.072 4.072 0 00-2.294-.22l-1.583-3.725c.87 0 1.741.511 2.137 1.315.158.365.633.584 1.028.438.396-.146.633-.584.475-.95-.712-1.534-2.453-2.41-4.193-2.192l-.238-.438c-.158-.365-.633-.584-1.028-.438-.396.146-.633.584-.475.95l.237.51a3.472 3.472 0 00-1.424 1.535c-.395.877-.395 1.827-.079 2.703a4.017 4.017 0 004.273 2.192zm2.611-.22c.554.22.95.585 1.187 1.097.396.877.08 1.826-.633 2.338l-1.582-3.653c.316 0 .633.073 1.028.219zm-5.3-4.09c.158-.293.316-.512.553-.73l1.504 3.579c-.87 0-1.74-.511-2.137-1.315a2.08 2.08 0 01.08-1.534z" stroke="#FFF" stroke-width=".25" fill="#FFB81C"/></g></svg>