<svg width="380" height="191" xmlns="http://www.w3.org/2000/svg" xmlns:xlink="http://www.w3.org/1999/xlink"><defs><path id="a" d="M0 .57v6.853h9.353V.57z"/><path id="c" d="M.277.64h3.468V4.11H.277z"/><path id="e" d="M.256.711h3.697v3.851H.256z"/></defs><g fill="none" fill-rule="evenodd"><g fill-rule="nonzero"><path d="M69.148 54c-.493 0-.948-.312-1.098-.798a1.12 1.12 0 01.765-1.401.621.621 0 00.437-.447.607.607 0 00-.183-.587 2.824 2.824 0 01-.818-2.731 2.875 2.875 0 012.008-2.07.63.63 0 00.427-.443.606.606 0 00-.18-.588 1.105 1.105 0 01-.035-1.588 1.167 1.167 0 011.625-.035 2.824 2.824 0 01.821 2.74c-.24.978-1.007 1.772-2 2.067a.603.603 0 00-.254 1.03 2.834 2.834 0 01.822 2.735 2.915 2.915 0 01-2.003 2.068 1.178 1.178 0 01-.334.048" fill="#559199"/><path d="M25.229 83c-.516 0-.988-.342-1.127-.863a2.959 2.959 0 01.761-2.858 3.007 3.007 0 012.86-.778c.177.05.426.028.612-.16a.64.64 0 00.166-.619 2.974 2.974 0 01.763-2.853 3.004 3.004 0 012.861-.775c.626.162 1 .797.837 1.419a1.17 1.17 0 01-1.424.833.643.643 0 00-.618.165c-.16.16-.22.391-.16.617a2.96 2.96 0 01-.766 2.85 2.97 2.97 0 01-2.863.774.647.647 0 00-.612.168.639.639 0 00-.16.614 1.163 1.163 0 01-.827 1.425 1.118 1.118 0 01-.303.041" fill="#FF07C2"/><path d="M50 107a2 2 0 11-.001 4.001A2 2 0 0150 107" fill="#0089F1"/><path d="M107.41 106.754l.068.001c1.01 0 1.89-.655 2.189-1.634a2.344 2.344 0 00-.952-2.638l-1.305 4.271zm.068 1.246c-.353 0-.705-.054-1.045-.16a.62.62 0 01-.405-.778l1.717-5.623a.615.615 0 01.77-.412c1.856.584 2.9 2.584 2.328 4.46a3.51 3.51 0 01-3.365 2.513z" fill="#51B8F2"/><path d="M14.247 37.164c.052.343.204.67.447.953.368.43.902.706 1.506.779 1.06.131 2.017-.395 2.413-1.199l-4.366-.533zM16.517 40c-.16 0-.322-.01-.485-.03-.926-.111-1.75-.536-2.316-1.197-.568-.662-.811-1.48-.682-2.304.046-.296.35-.508.69-.463l5.747.7a.63.63 0 01.404.21c.098.114.141.26.12.402C19.754 38.847 18.26 40 16.517 40z" fill="#FF7C3A"/></g><path d="M194.593 91.085c0-.422.291-.812.745-.94.555-.158 1.141.135 1.31.654a.56.56 0 00.417.375.599.599 0 00.548-.157 2.795 2.795 0 012.552-.7c.925.206 1.667.866 1.934 1.72.045.136.18.313.414.365a.598.598 0 00.55-.153 1.099 1.099 0 011.484-.03.94.94 0 01.032 1.39 2.795 2.795 0 01-2.56.704c-.914-.206-1.656-.862-1.931-1.713a.543.543 0 00-.412-.371.602.602 0 00-.552.154c-.66.642-1.638.91-2.554.704-.92-.21-1.658-.869-1.933-1.716a.93.93 0 01-.044-.286" fill="#559199" fill-rule="nonzero"/><g transform="rotate(90 46.535 85.535)"><mask id="b" fill="#fff"><use xlink:href="#a"/></mask><path d="M8.28 7.423l-.053-.001A1.06 1.06 0 017.208 6.32a.57.57 0 00-.266-.511.606.606 0 00-.577-.025 2.785 2.785 0 01-2.72-.14 2.644 2.644 0 01-1.24-2.378.583.583 0 00-.266-.504.588.588 0 00-.58-.025A1.08 1.08 0 01.118 2.28 1.044 1.044 0 01.583.864a2.78 2.78 0 012.72.132 2.683 2.683 0 011.243 2.37.558.558 0 00.262.51.61.61 0 00.593.031 2.773 2.773 0 012.708.136A2.673 2.673 0 019.35 6.42a1.065 1.065 0 01-1.07 1.003" fill="#559199" fill-rule="nonzero" mask="url(#b)"/></g><g transform="rotate(90 74.942 147.058)"><mask id="d" fill="#fff"><use xlink:href="#c"/></mask><path d="M2.011.64a1.735 1.735 0 110 3.47 1.735 1.735 0 010-3.47" fill="#FF7C3A" fill-rule="nonzero" mask="url(#d)"/></g><path d="M167.185 104.663a1.713 1.713 0 11-3.426-.001 1.713 1.713 0 013.426 0" fill="#C727E2" fill-rule="nonzero"/><path d="M146.136 125.81l-.001.07c0 1.039.642 1.943 1.6 2.25.993.318 2.043-.113 2.582-.978l-4.18-1.341zm-1.22.07c0-.363.053-.725.158-1.074.1-.335.44-.52.761-.416l5.504 1.765c.155.05.284.16.36.31a.66.66 0 01.043.482c-.571 1.906-2.529 2.98-4.365 2.392-1.471-.47-2.46-1.861-2.46-3.459z" fill="#51B8F2" fill-rule="nonzero"/><path d="M250.476 37.79c-.367.05-.717.2-1.02.437-.46.36-.756.884-.834 1.475a2.246 2.246 0 001.283 2.362l.57-4.274zm-3.036 2.223c0-.001 0 0 0 0 0-.158.01-.316.031-.476a3.43 3.43 0 011.282-2.267 3.226 3.226 0 012.467-.668.591.591 0 01.496.677l-.75 5.624a.602.602 0 01-.224.396.568.568 0 01-.431.117c-1.637-.234-2.871-1.698-2.871-3.403z" fill="#FF7C3A" fill-rule="nonzero"/><g><path d="M303.5 37.729c0-.516.342-.988.863-1.127a2.959 2.959 0 012.858.761 3.007 3.007 0 01.778 2.86.626.626 0 00.16.612.64.64 0 00.619.166 2.974 2.974 0 012.853.763 3.004 3.004 0 01.775 2.861c-.162.626-.797 1-1.419.837a1.17 1.17 0 01-.833-1.424.643.643 0 00-.165-.618.634.634 0 00-.617-.16 2.96 2.96 0 01-2.85-.766 2.97 2.97 0 01-.774-2.863.647.647 0 00-.168-.612.639.639 0 00-.614-.16 1.163 1.163 0 01-1.425-.827 1.118 1.118 0 01-.041-.303" fill="#FF07C2" fill-rule="nonzero"/><path d="M277.5 64.5a2 2 0 110-3.999 2 2 0 010 3.999z" fill="#0089F1" fill-rule="nonzero"/><g transform="rotate(90 151 211.5)"><mask id="f" fill="#fff"><use xlink:href="#e"/></mask><path d="M2.104.71c1.021 0 1.85.863 1.85 1.926 0 1.064-.829 1.926-1.85 1.926-1.02 0-1.848-.862-1.848-1.926 0-1.063.828-1.925 1.848-1.925" fill="#FF7C3A" fill-rule="nonzero" mask="url(#f)"/></g><path d="M261.036 86.938a2.556 2.556 0 00-1.199.554 2.578 2.578 0 00-.933 1.756 2.57 2.57 0 001.641 2.693l.491-5.003zm-3.536 2.575c0-.135.007-.266.02-.4a3.978 3.978 0 011.436-2.703 3.937 3.937 0 012.92-.89c.381.04.642.385.623.764l-.648 6.584a.696.696 0 01-.762.629 3.983 3.983 0 01-3.589-3.984z" fill="#559199" fill-rule="nonzero"/><path d="M349.044 26.925a2.47 2.47 0 00-1.19.51 2.601 2.601 0 00-.974 1.722 2.623 2.623 0 001.499 2.758l.665-4.99zM345.5 29.52c0-.001 0 0 0 0 0-.183.012-.368.037-.555.14-1.058.67-2 1.497-2.647a3.766 3.766 0 012.88-.78c.37.054.634.4.579.79l-.876 6.567a.703.703 0 01-.262.463.663.663 0 01-.503.136c-1.91-.274-3.352-1.983-3.352-3.974z" fill="#FF7C3A" fill-rule="nonzero"/></g><circle stroke="#FCB61A" stroke-width="3.5" fill="#FFF" fill-rule="nonzero" cx="190.5" cy="116.5" r="61.5"/><g fill="#FFF" fill-rule="nonzero"><g transform="translate(191 109)" stroke="#00487C" stroke-width="2"><ellipse cx="15.8" cy="5.079" rx="4.847" ry="4.869"/><path d="M30.268 6.577c-.746-.824-2.014-.824-2.834 0L21.69 12.27c-.372-.524-.969-.824-1.64-.824h-8.353c-.671 0-1.268.3-1.64.824L4.315 6.577c-.82-.75-2.088-.75-2.834 0-.746.749-.746 2.097 0 2.846l8.13 8.091v20.825c0 .9.521 1.724 1.341 1.948 1.343.45 2.685-.599 2.685-1.873v-8.09a2.09 2.09 0 012.088-2.098h.299a2.09 2.09 0 012.088 2.098v8.016c0 .898.522 1.723 1.342 1.947 1.343.45 2.685-.599 2.685-1.873V17.59l8.129-8.09a2.187 2.187 0 000-2.922z"/></g><path d="M219.627 114.85a.41.41 0 01-.373-.224c-.97-2.622-.447-4.42 0-6.068.448-1.723.895-3.371 0-6.068-.074-.225.075-.375.224-.45.224-.075.373.075.447.225.97 2.922.448 4.72 0 6.517-.447 1.648-.895 3.147 0 5.619.075.225 0 .374-.298.45z" stroke="#00487C"/><path d="M226.339 92.852c0 3.67-5.071 9.14-6.563 9.14-1.566 0-6.562-5.544-6.562-9.14 0-3.596 2.983-6.592 6.562-6.592 3.58 0 6.563 2.996 6.563 6.592z" stroke="#FFB81C" stroke-width="2"/></g><g fill="#FFF" fill-rule="nonzero"><g transform="translate(159 109)" stroke="#00487C" stroke-width="2"><ellipse cx="15.583" cy="5.079" rx="4.847" ry="4.869"/><path d="M30.05 9.423c.821-.749.821-2.022 0-2.846-.82-.824-2.013-.824-2.833 0l-5.743 5.693c-.372-.524-.97-.824-1.64-.824h-8.427c-.672 0-1.268.3-1.641.824L3.949 6.577c-.82-.75-2.088-.75-2.834 0-.746.749-.746 2.097 0 2.846l8.129 8.091v3.296l-3.729 6.742c-.15.3.075.6.373.6h4.922V38.34a2.01 2.01 0 002.014 2.022 2.01 2.01 0 002.013-2.022V28.15h1.64V38.34a2.01 2.01 0 002.014 2.022 2.01 2.01 0 002.014-2.022V28.15h4.922c.298 0 .522-.374.373-.599L22.07 20.81v-3.296l7.98-8.09z"/></g><path d="M161.457 114.85a.41.41 0 01-.372-.224c-.97-2.622-.448-4.42 0-6.068.447-1.723.894-3.371 0-6.068-.075-.225.074-.375.223-.45.224-.075.373.075.448.225.97 2.922.447 4.72 0 6.517-.448 1.648-.895 3.147 0 5.619.074.225 0 .374-.299.45z" stroke="#00487C"/><path d="M168.17 92.852c0 3.67-5.072 9.14-6.563 9.14-1.567 0-6.563-5.544-6.563-9.14 0-3.596 2.983-6.592 6.563-6.592 3.58 0 6.562 2.996 6.562 6.592z" stroke="#FFB81C" stroke-width="2"/></g></g></svg>