<svg width="380" height="191" xmlns="http://www.w3.org/2000/svg"><g fill="#FFF" fill-rule="nonzero"><circle stroke="#FCB61A" stroke-width="3.5" cx="190.5" cy="116.5" r="61.5"/><g transform="translate(190 109)" stroke="#00487C"><ellipse stroke-width="2" cx="15.8" cy="5.079" rx="4.847" ry="4.869"/><path d="M30.268 6.577c-.746-.824-2.014-.824-2.834 0L21.69 12.27c-.372-.524-.969-.824-1.64-.824h-8.353c-.671 0-1.268.3-1.64.824L4.315 6.577c-.82-.75-2.088-.75-2.834 0-.746.749-.746 2.097 0 2.846l8.13 8.091v20.825c0 .9.521 1.724 1.341 1.948 1.343.45 2.685-.599 2.685-1.873v-8.09a2.09 2.09 0 012.088-2.098h.299a2.09 2.09 0 012.088 2.098v8.016c0 .898.522 1.723 1.342 1.947 1.343.45 2.685-.599 2.685-1.873V17.59l8.129-8.09a2.187 2.187 0 000-2.922z" stroke-width="2.5"/></g><path d="M218.627 114.85a.41.41 0 01-.373-.224c-.97-2.622-.447-4.42 0-6.068.448-1.723.895-3.371 0-6.068-.074-.225.075-.375.224-.45.224-.075.373.075.447.225.97 2.922.448 4.72 0 6.517-.447 1.648-.895 3.147 0 5.619.075.225 0 .374-.298.45z" stroke="#00487C"/><path d="M225.339 92.852c0 3.67-5.071 9.14-6.563 9.14-1.566 0-6.562-5.544-6.562-9.14 0-3.596 2.983-6.592 6.562-6.592 3.58 0 6.563 2.996 6.563 6.592z" stroke="#FFB81C" stroke-width="2"/><g><g transform="translate(158 109)" stroke="#00487C" stroke-width="2"><ellipse cx="15.583" cy="5.079" rx="4.847" ry="4.869"/><path d="M30.05 9.423c.821-.749.821-2.022 0-2.846-.82-.824-2.013-.824-2.833 0l-5.743 5.693c-.372-.524-.97-.824-1.64-.824h-8.427c-.672 0-1.268.3-1.641.824L3.949 6.577c-.82-.75-2.088-.75-2.834 0-.746.749-.746 2.097 0 2.846l8.129 8.091v3.296l-3.729 6.742c-.15.3.075.6.373.6h4.922V38.34a2.01 2.01 0 002.014 2.022 2.01 2.01 0 002.013-2.022V28.15h1.64V38.34a2.01 2.01 0 002.014 2.022 2.01 2.01 0 002.014-2.022V28.15h4.922c.298 0 .522-.374.373-.599L22.07 20.81v-3.296l7.98-8.09z"/></g><path d="M161.042 115a.474.474 0 01-.422-.228c-1.096-2.656-.506-4.478 0-6.148.507-1.746 1.013-3.416 0-6.148-.084-.228.085-.38.253-.456.254-.076.422.076.507.228 1.096 2.96.506 4.782 0 6.604-.507 1.67-1.013 3.188 0 5.693.084.227 0 .38-.338.455z" stroke="#00487C"/><path d="M167 92.705c0 3.733-5.023 9.295-6.5 9.295-1.551 0-6.5-5.638-6.5-9.295S156.955 86 160.5 86s6.5 3.048 6.5 6.705z" stroke="#FFB81C" stroke-width="2"/></g></g></svg>