<svg width="380" height="191" xmlns="http://www.w3.org/2000/svg"><g transform="translate(129 55)" fill="none" fill-rule="evenodd"><path d="M39.167 84.38h-2.29 2.29z" stroke="#FFF" stroke-width="2" fill="#00487C"/><circle stroke="#FCB61A" stroke-width="3.5" fill="#FFF" cx="61.5" cy="61.5" r="61.5"/><g transform="translate(23 31)" fill="#FFF" fill-rule="nonzero" stroke="#00487C" stroke-width="2.5"><path d="M18 13c3.867 0 7-2.91 7-6.5S21.867 0 18 0c-3.864 0-7 2.911-7 6.5 0 3.59 3.136 6.5 7 6.5z"/><path d="M35.51 7.222c-1.28-.56-2.795-.022-3.382 1.203-.173.368-2.799 5.38-7.24 8.674-1.79-.856-3.897-1.366-6.39-1.366-2.49 0-4.597.51-6.388 1.366-4.441-3.293-7.065-8.306-7.239-8.674-.587-1.225-2.1-1.763-3.38-1.203C.208 7.782-.356 9.23.231 10.456c1.793 3.752 5.48 9.613 10.555 13.166v16.71l1.102 20.631c.029.572.539 1.037 1.137 1.037h2.464c.598 0 1.108-.464 1.139-1.037l1.1-20.63h1.542l1.101 20.63c.03.572.542 1.037 1.139 1.037h2.463c.6 0 1.11-.464 1.138-1.037l1.1-20.63v-16.71c5.076-3.554 8.763-9.415 10.557-13.167.585-1.226.021-2.674-1.259-3.234z"/><ellipse cx="57" cy="6.5" rx="7" ry="6.5"/><path d="M75.85 10.252c.476-1.265-.219-2.657-1.55-3.11-1.335-.451-2.801.208-3.276 1.474-.034.094-2.478 5.224-7.21 8.548-1.83-.814-3.918-1.298-6.313-1.298-2.394 0-4.486.484-6.317 1.298-4.732-3.323-7.175-8.454-7.208-8.548-.478-1.266-1.947-1.925-3.275-1.474-1.332.453-2.026 1.846-1.552 3.11 1.531 4.072 5.289 9.685 10.985 13.023v7.719L44.76 43.75c-.218.522.084.944.675.944h4.798l.876 16.272c.031.57.545 1.034 1.145 1.034h2.52c.6 0 1.115-.462 1.147-1.034l.874-16.272h1.411l.876 16.272c.029.57.541 1.034 1.142 1.034h2.521c.603 0 1.114-.462 1.144-1.034l.875-16.272h4.8c.592 0 .894-.423.673-.944l-5.372-12.756v-7.72c5.695-3.337 9.455-8.95 10.985-13.022z"/></g></g></svg>