<svg width="380" height="191" xmlns="http://www.w3.org/2000/svg"><defs><linearGradient x1="50%" y1="100%" x2="50%" y2="1.921%" id="a"><stop stop-color="#FFF" offset="0%"/><stop stop-color="#EEF9FF" offset="100%"/></linearGradient><linearGradient x1="50%" y1="100%" x2="50%" y2="0%" id="b"><stop stop-color="#FFF" offset="0%"/><stop stop-color="#EEF9FF" stop-opacity=".986" offset="100%"/></linearGradient></defs><g fill="none" fill-rule="evenodd"><path d="M3.588 11.366c0 .715.099 1.391.224 2.068C1.509 15.23 0 18.024 0 21.184 0 26.597 4.366 31 9.738 31h22.549C37.093 31 41 27.063 41 22.217a8.782 8.782 0 00-6.583-8.51c.255-.736.432-1.513.432-2.34 0-3.988-3.218-7.234-7.173-7.234-1.277 0-2.45.379-3.492.969C22.164 2.049 18.774 0 14.863 0 8.642 0 3.588 5.096 3.588 11.366z" stroke="#979797" fill="url(#a)" fill-rule="nonzero" transform="translate(294 67)"/><path d="M308.863 67c-6.221 0-11.275 5.096-11.275 11.366 0 .715.099 1.391.224 2.068-2.303 1.796-3.812 4.59-3.812 7.75 0 5.414 4.366 9.816 9.738 9.816h22.549c4.806 0 8.713-3.937 8.713-8.783a8.782 8.782 0 00-6.583-8.51c.255-.736.432-1.513.432-2.34 0-3.988-3.218-7.234-7.173-7.234-1.277 0-2.45.379-3.492.969-2.02-3.053-5.41-5.102-9.321-5.102z" stroke="#00487C" stroke-width="2.2"/><circle stroke="#FCB61A" stroke-width="3.5" fill="#FFF" fill-rule="nonzero" cx="190.5" cy="116.5" r="61.5"/><g fill-rule="nonzero"><g fill="#FFB81C"><path d="M195 109c-.6 0-1 .3-1 .75v1.5c0 .45.4.75 1 .75s1-.3 1-.75v-1.5c0-.375-.4-.75-1-.75zM191 109c-.6 0-1 .3-1 .75v1.5c0 .45.4.75 1 .75s1-.3 1-.75v-1.5c0-.375-.5-.75-1-.75zM187 109c-.6 0-1 .3-1 .75v1.5c0 .45.4.75 1 .75s1-.3 1-.75v-1.5c0-.375-.5-.75-1-.75zM195 116c-.6 0-1 .3-1 .75v1.5c0 .45.4.75 1 .75s1-.3 1-.75v-1.5c0-.45-.4-.75-1-.75zM191 116c-.6 0-1 .3-1 .75v1.5c0 .45.4.75 1 .75s1-.3 1-.75v-1.5c0-.45-.5-.75-1-.75zM187 116c-.6 0-1 .3-1 .75v1.5c0 .45.4.75 1 .75s1-.3 1-.75v-1.5c0-.45-.5-.75-1-.75zM195 122c-.6 0-1 .3-1 .75v1.5c0 .45.4.75 1 .75s1-.3 1-.75v-1.5c0-.45-.4-.75-1-.75zM191 122c-.6 0-1 .3-1 .75v1.5c0 .45.4.75 1 .75s1-.3 1-.75v-1.5c0-.45-.5-.75-1-.75zM187 122c-.6 0-1 .3-1 .75v1.5c0 .45.4.75 1 .75s1-.3 1-.75v-1.5c0-.45-.5-.75-1-.75zM195 128c-.6 0-1 .3-1 .75v1.5c0 .45.4.75 1 .75s1-.3 1-.75v-1.5c0-.375-.4-.75-1-.75zM191 128c-.6 0-1 .3-1 .75v1.5c0 .45.4.75 1 .75s1-.3 1-.75v-1.5c0-.375-.5-.75-1-.75zM187 128c-.6 0-1 .3-1 .75v1.5c0 .45.4.75 1 .75s1-.3 1-.75v-1.5c0-.375-.5-.75-1-.75zM195 135c-.6 0-1 .3-1 .75v1.5c0 .45.4.75 1 .75s1-.3 1-.75v-1.5c0-.45-.4-.75-1-.75zM191 135c-.6 0-1 .3-1 .75v1.5c0 .45.4.75 1 .75s1-.3 1-.75v-1.5c0-.45-.5-.75-1-.75zM187 135c-.6 0-1 .3-1 .75v1.5c0 .45.4.75 1 .75s1-.3 1-.75v-1.5c0-.45-.5-.75-1-.75z"/></g><g fill="#FFB81C"><path d="M178 90c-.6 0-1 .293-1 .732v1.536c0 .44.4.732 1 .732s1-.293 1-.732v-1.536c0-.366-.4-.732-1-.732zM174 90c-.6 0-1 .293-1 .732v1.536c0 .44.4.732 1 .732s1-.293 1-.732v-1.536c0-.366-.4-.732-1-.732zM178 97c-.6 0-1 .293-1 .732v1.536c0 .44.4.732 1 .732s1-.293 1-.732v-1.536c0-.44-.4-.732-1-.732zM182 93c.6 0 1-.293 1-.732v-1.536c0-.44-.4-.732-1-.732s-1 .293-1 .732v1.536c0 .44.4.732 1 .732zM182 100c.6 0 1-.293 1-.732v-1.536c0-.44-.4-.732-1-.732s-1 .293-1 .732v1.536c0 .366.4.732 1 .732zM174 97c-.6 0-1 .293-1 .732v1.536c0 .44.4.732 1 .732s1-.293 1-.732v-1.536c0-.44-.4-.732-1-.732zM178 103c-.6 0-1 .293-1 .732v1.536c0 .44.4.732 1 .732s1-.293 1-.732v-1.536c0-.366-.4-.732-1-.732zM174 103c-.6 0-1 .293-1 .732v1.536c0 .44.4.732 1 .732s1-.293 1-.732v-1.536c0-.366-.4-.732-1-.732zM178 110c-.6 0-1 .293-1 .732v1.536c0 .44.4.732 1 .732s1-.293 1-.732v-1.536c0-.44-.4-.732-1-.732zM174 110c-.6 0-1 .293-1 .732v1.536c0 .44.4.732 1 .732s1-.293 1-.732v-1.536c0-.44-.4-.732-1-.732zM178 116c-.6 0-1 .293-1 .732v1.536c0 .44.4.732 1 .732s1-.293 1-.732v-1.536c0-.366-.4-.732-1-.732zM174 116c-.6 0-1 .293-1 .732v1.536c0 .44.4.732 1 .732s1-.293 1-.732v-1.536c0-.366-.4-.732-1-.732z"/></g><path d="M218.511 144.491c0-.461-.31-.768-.774-.768h-1.859v-26.364c0-.462-.31-.769-.774-.769h-3.562V90.072c0-.46-.31-.768-.774-.768H194.66c-.465 0-.774.307-.774.768v9.378l-6.737 3.535V86.46c0-.461-.31-.769-.774-.769H169.34c-.465 0-.774.308-.774.769v36.586h-3.795c-.464 0-.774.308-.774.77v19.907h-2.168c-.465 0-.775.307-.775.768s.31.769.775.769h55.985c.387 0 .697-.308.697-.769zm-35.543-.768v-36.818l15.487-7.993v44.811h-15.487zM214.33 132.5h-14.326v-3.997h14.403v3.997h-.077zm-14.326 1.537h14.403v3.997h-14.403v-3.997zm14.326-7.072h-14.326V123.2h14.403v3.766h-.077zm-14.326 12.683h14.403v4.074h-14.403v-4.074zm14.326-17.986h-14.326v-3.536h14.403v3.536h-.077zm-18.895-30.822h14.558v25.749h-10.066V97.605c0-.23-.155-.538-.388-.692a.708.708 0 00-.774 0l-3.33 1.768v-7.84zm-25.32-3.612H185.6v16.525l-3.794 1.998a.806.806 0 00-.387.692v16.602h-11.306V87.23zm-4.647 37.355h15.874v19.139h-2.787v-7.456c0-2.844-2.246-5.15-5.034-5.15-2.787 0-5.033 2.306-5.033 5.15v7.456h-3.02v-19.14zm11.615 19.139h-7.046v-7.456c0-1.999 1.549-3.613 3.484-3.613 1.936 0 3.485 1.614 3.485 3.613v7.456h.077z" stroke="#00487C" stroke-width=".7" fill="#00487C"/></g><g><path d="M49.306 37h-38.4C4.848 37 0 32.01 0 25.947c0-5.066 3.408-9.52 8.179-10.748 1.743-3.992 5.606-6.603 9.997-6.603 1.138 0 2.198.155 3.257.538C23.101 3.76 28.023 0 33.63 0c7.043 0 12.724 5.834 12.724 12.896 0 .69-.077 1.382-.152 2.072.605-.076 1.286-.152 1.893-.152 6.06 0 10.906 4.988 10.906 11.053 0 5.297-3.71 9.825-8.786 10.9l-.908.231z" fill="url(#b)" fill-rule="nonzero" transform="translate(45 31)"/><path d="M94.306 68h-38.4C49.848 68 45 63.01 45 56.947c0-5.066 3.408-9.52 8.179-10.748 1.743-3.992 5.606-6.603 9.997-6.603 1.138 0 2.198.155 3.257.538C68.101 34.76 73.023 31 78.63 31c7.043 0 12.724 5.834 12.724 12.896 0 .69-.077 1.382-.152 2.072.605-.076 1.286-.152 1.893-.152 6.06 0 10.906 4.988 10.906 11.053 0 5.297-3.71 9.825-8.786 10.9l-.908.231z" stroke="#00487C" stroke-width="2.2"/></g></g></svg>