<svg width="380" height="191" xmlns="http://www.w3.org/2000/svg"><g fill="none" fill-rule="nonzero"><circle stroke="#FCB61A" stroke-width="3.5" fill="#FFF" cx="190.5" cy="116.5" r="61.5"/><path d="M156.636 99.005a.844.844 0 00-.636.818v34.359c0 .428.388.818.814.818h68.372c.426 0 .814-.39.814-.818V99.823c0-.428-.388-.818-.814-.818h-68.372a.81.81 0 00-.178 0zM156 99h24v26h-24V99zm24 0h22v26h-22V99zm22 0h24v26h-24V99zm-22 26h22v10h-22v-10z" stroke="#0E497B" stroke-width="2" fill="#0E497B"/><path d="M190.419 103.005c-.32.042-.582.37-.569.713v2.073h-2.6c-1.842 0-3.25 1.576-3.25 3.457 0 1.881 1.408 3.456 3.25 3.456h6.5c1.175 0 1.95.892 1.95 2.074 0 1.183-.775 2.074-1.95 2.074h-7.8c-.343-.005-.65.326-.65.692 0 .365.307.696.65.69h3.9v2.075c-.005.365.307.691.65.691s.655-.326.65-.691v-2.074h2.6c1.842 0 3.25-1.576 3.25-3.457 0-1.88-1.408-3.456-3.25-3.456h-6.5c-1.175 0-1.95-.891-1.95-2.074 0-1.183.775-2.074 1.95-2.074h7.8c.343.005.65-.326.65-.691 0-.365-.307-.697-.65-.692h-3.9v-2.073c.015-.4-.358-.764-.731-.713z" stroke="#FFB81C" fill="#FFB81C"/><path d="M157 126h22v3h-22v-3zm0 5h22v3h-22v-3zM203 131h22v3h-22v-3zm0-5h22v3h-22v-3z" fill="#FFF"/></g></svg>