<svg width="380" height="191" xmlns="http://www.w3.org/2000/svg" xmlns:xlink="http://www.w3.org/1999/xlink"><defs><path d="M12.912 9.401c-.003-.026-.005-.053-.018-.08-.413-.826-1.561-1.22-2.559-.88-.254.087-.48.216-.668.378a2.479 2.479 0 00-1.774-.067c-1.077.369-1.591 1.394-1.147 2.285.057.114.19.182.33.182a.424.424 0 00.135-.022c.182-.062.268-.235.193-.385-.294-.59.047-1.27.76-1.515a1.63 1.63 0 011.37.147.42.42 0 00.273.054.367.367 0 00.236-.127c.138-.172.333-.305.564-.384.635-.218 1.366.034 1.628.56a.329.329 0 00.188.157c-.2.16-.367.35-.485.558-.084.148-.007.323.17.393.179.069.39.006.474-.142.116-.204.295-.381.517-.514.718-.428 1.723-.291 2.24.303.515.595.351 1.427-.367 1.854-.16.095-.196.28-.081.412.07.08.178.122.29.122a.408.408 0 00.206-.055c1.037-.617 1.274-1.818.529-2.677-.692-.797-1.991-1.022-3.004-.557zm5.873-.125c.362-.313.555-.724.542-1.157-.011-.433-.226-.836-.604-1.136-.78-.618-2.023-.595-2.77.05-.19.165-.334.358-.426.57-.618-.034-1.22.154-1.656.532-.136.117-.131.304.01.416a.411.411 0 00.505-.009c.34-.295.835-.416 1.323-.323a.414.414 0 00.276-.042.297.297 0 00.154-.195.977.977 0 01.33-.54c.474-.412 1.265-.426 1.762-.033.241.191.378.448.385.724a.936.936 0 01-.346.737 1.237 1.237 0 01-.235.154.303.303 0 00-.156.186.252.252 0 00.049.223c.178.227.144.52-.08.716-.137.117-.132.304.01.416a.395.395 0 00.246.082c.094 0 .187-.03.258-.091.374-.324.485-.785.313-1.192.039-.029.075-.058.11-.088zm5.097-.176a1.77 1.77 0 00.428-1.137c0-1.096-1.078-1.998-2.445-2.085-.494-.932-1.651-1.544-2.956-1.544-.215 0-.428.017-.638.05C17.728 3.536 16.635 3 15.405 3c-1.772 0-3.214 1.13-3.214 2.52v.01c-.806-.15-1.675-.035-2.375.316a3.582 3.582 0 00-1.797-.468c-1.663 0-3.018 1.062-3.018 2.368 0 .133.015.265.043.396-1.09.302-1.872 1.143-2.031 2.221-.09.605.28 1.99 1.269 2.683l2.23 11.672c0 .006-.004.01-.004.017 0 .765 1.043 1.347 2.552 1.73.01.004.022.005.033.008.773.193 1.664.335 2.601.422.007 0 .013.004.021.004l.014-.001c.734.068 1.493.102 2.243.102l.153-.001H14.134c1.827-.012 3.695-.225 5.086-.625l.033-.009c1.309-.381 2.185-.928 2.185-1.63 0-.006-.004-.012-.004-.018l2.265-11.793c.918-.368 1.392-1.267 1.38-1.959-.008-.513-.372-1.457-1.197-1.865zM7.269 24.907L5.095 13.53c.572.293 1.393.536 2.374.729l1.324 11.507c-.829-.255-1.37-.558-1.524-.859zm2.261 1.055L8.2 14.388c.789.126 1.655.223 2.564.29l.578 11.586c-.67-.076-1.278-.18-1.812-.302zm2.528.371l-.58-11.608c.723.041 1.464.064 2.206.069l.086 11.613c-.598-.005-1.17-.03-1.712-.074zm4.146-.028c-.541.052-1.118.085-1.722.098l-.085-11.61a43.95 43.95 0 002.39-.087l-.583 11.6zm2.574-.432c-.531.14-1.16.26-1.857.351l.582-11.57a29.236 29.236 0 002.571-.32l-1.296 11.54zm1.898-.965c-.13.253-.536.508-1.157.735l1.286-11.452c.836-.18 1.538-.401 2.045-.661l-2.174 11.378zm1.83-11.877c-.439.223-1.15.445-2.098.636-.021.003-.041.006-.061.012-1.55.305-3.715.527-6.375.527a43.332 43.332 0 01-3.129-.111 28.568 28.568 0 01-2.986-.366c-1.133-.208-1.965-.46-2.448-.713-.318-.167-1.142-.882-1.21-.966-.356-.443-.54-1.206-.48-1.615.14-.95.839-1.637 1.822-1.793a.362.362 0 00.24-.14.25.25 0 00.032-.241c-.066-.168-.1-.341-.1-.516 0-.98 1.035-1.778 2.306-1.778a2.71 2.71 0 011.551.466.416.416 0 00.44.014c.696-.419 1.646-.51 2.453-.23a.417.417 0 00.364-.043c.102-.07.149-.18.123-.287a1.541 1.541 0 01-.047-.367c0-1.065 1.123-1.93 2.502-1.93 1.031 0 1.97.5 2.337 1.247.068.14.253.213.428.172a3.19 3.19 0 01.739-.086c1.09 0 2.043.538 2.374 1.34.049.119.185.199.337.199l.042-.002c1.069.007 1.936.678 1.936 1.503 0 .39-.196.762-.553 1.045-.095.076-.132.19-.095.295a.339.339 0 00.27.207c.75.127 1.14 1.006 1.147 1.462a1.55 1.55 0 01-.494 1.105c-.099.09-1.182.86-1.367.954zm-3.219-2.826a1.4 1.4 0 00-.5.513c-.082.148-.002.323.177.39.18.068.39.002.47-.147a.764.764 0 01.277-.282c.386-.238.933-.17 1.22.15a.627.627 0 01.162.535.708.708 0 01-.343.473c-.158.097-.192.282-.074.413a.407.407 0 00.498.062c.34-.21.56-.515.623-.861a1.14 1.14 0 00-.295-.974c-.52-.58-1.514-.702-2.215-.272z" id="a"/></defs><g fill="none" fill-rule="evenodd"><circle stroke="#FCB61A" stroke-width="3.5" fill="#FFF" fill-rule="nonzero" cx="190.5" cy="116.5" r="61.5"/><g fill-rule="nonzero"><path d="M243.856 100.37l-1.869 3.585h-1.3c-.36 0-.687.314-.687.659v3.954c0 .345.328.66.687.66h1.085l1.665 19.164c.027.328.345.609.688.608h13.75c.343 0 .66-.28.688-.608l1.665-19.165h1.084c.36 0 .688-.314.688-.659v-3.954c0-.345-.328-.66-.688-.66h-1.3l-1.868-3.583a.706.706 0 00-.613-.371H244.47c-.32.006-.465.193-.613.37z" stroke="#FFF" stroke-width="2" fill="#FFF"/><path d="M243.856 100.37l-1.869 3.585h-1.3c-.36 0-.687.314-.687.659v3.954c0 .345.328.66.687.66h1.085l1.665 19.164c.027.328.345.609.688.608h13.75c.343 0 .66-.28.688-.608l1.665-19.165h1.084c.36 0 .688-.314.688-.659v-3.954c0-.345-.328-.66-.688-.66h-1.3l-1.868-3.583a.706.706 0 00-.613-.371H244.47c-.32.006-.465.193-.613.37zm1.523.63h12.242l1.379 3h-15l1.38-3zM241 105h19v3h-19v-3zm2 4h16l-.548 6h-3.65c-.813-1.133-2.2-1.895-3.802-1.895-1.602 0-2.99.762-3.803 1.895h-3.65l-.547-6zm8 6c1.178 0 2.191.665 2.69 1.635a.685.685 0 00.596.365H258l-.167 2h-3.547a.688.688 0 00-.597.354A3.023 3.023 0 01251 121a3.023 3.023 0 01-2.69-1.646.685.685 0 00-.596-.354h-3.547l-.167-2h3.714a.685.685 0 00.597-.365A3.014 3.014 0 01251 115zm-7 5h3.216c.81 1.244 2.193 2.087 3.784 2.087 1.59 0 2.973-.843 3.784-2.087H258l-.665 8h-12.67l-.665-8z" stroke="#00487C" stroke-width=".5" fill="#00487C"/></g><g fill-rule="nonzero"><g transform="translate(119 99)"><use fill="#00487C" fill-rule="evenodd" xlink:href="#a"/><path stroke="#FFF" stroke-width="9.5" d="M8.496 12.488a5.034 5.034 0 01-.51-.819c.153.307.336.578.542.815zM7.044 13.49a5.219 5.219 0 010 0zm1.164-3.43l-.004-.034-.005-.037a.849.849 0 00.01.072zm5.919 2.22a4.306 4.306 0 00-.008-.008zM15.79 4.84a5.19 5.19 0 010 0zm4.99 4.151a3.815 3.815 0 000 .002zm-6.173-1.284a3.377 3.377 0 00-.028.538c.027 1.02.502 1.913 1.195 2.463.501.397 1.077.59 1.651.576 1.329-1.52 1.441-3.734.385-5.376a4.36 4.36 0 00-2.557 1.058c-.25.216-.467.466-.646.74zm-.66-3.819c-.247.01-.492.042-.734.094a5.826 5.826 0 01.308-.266 6.459 6.459 0 013.058-.165 4.33 4.33 0 00-2.633.337zm2.632-.337a6.56 6.56 0 010 0zm-5.052 3.296a4.64 4.64 0 00.004-.02zM22.67 10.87a5.716 5.716 0 01-.274.447 4.54 4.54 0 00.104-1.007 4.493 4.493 0 00-.81-3.778 5.225 5.225 0 01.98 4.338zm-.98-4.338a4.422 4.422 0 000 .002zm-.64 7.125a5.45 5.45 0 01-.001 0zm5.084 10.544l.021-.003-.048-.25.027.253zm-.027-.254a11.665 11.665 0 00-.135-.645c.066.193.096.317.135.645zm-10.608 7.601h.002a.103.103 0 01.004-.001zm-4.44.05a2.144 2.144 0 01-.368-.058c.064.014.148.027.369.058zm-.368-.058l-.094-.024-.01-.002c.04.01.07.019.104.026zm-2.621-.429l.012.003-.012-.003s0 0 0 0zm.012.003l.01.002-.005-.001zm-6.287-6.681c.047-.383.08-.633.107-.811-.031.174-.07.422-.131.81h.024zm.107-.811c.05-.327.088-.409.179-.613l-.006.015c-.086.21-.117.286-.173.598zm.179-.613s0 0 0 0 0 0 0 0zM19.854 9.347c.156.325.364.589.598.79-.039.13-.069.265-.09.404l-1.03-.066.192-.996.33-.132zm-1.605-.15l-.241-.454.062-.075c.29.298.594.416.839.416.034 0 .07-.003.106-.009l-.766.122zm-.71.112l-.598.095v.626l.598-.72zm-.598 1.658v.276l-5.32-.988-1.13.567.151.695-1.725.48 1.91 9.993c.35.064.734.119 1.124.158l.214.02a19.904 19.904 0 001.937.081h.002c1.097-.007 2.17-.104 3.017-.26l1.918-9.985-2.098-1.037zm-8.277-.293l-.948-.554a1.508 1.508 0 00-.01-.043c.11.035.215.051.313.051.101 0 .207-.014.314-.043l.252.177.08.412zm1.51 11.172l.052.014.041.01a7.791 7.791 0 00-.094-.024zm.101.026l.23.058.267.104c-.286-.095-.411-.137-.497-.162zm-.18-.042l-.005-.001-.014-.003.02.004zm-.019-.004s0 0 0 0 0 0 0 0zm2.281.372c.219.03.3.042.366.057a2.097 2.097 0 00-.366-.057zm3.08.226c.06.018.112.038.183.066-.07-.028-.124-.048-.182-.066zm-1.308-.174s0 0 0 0h0zm-.162.01c-.447.032-.61.046-.785.083.154-.026.363-.045.785-.082zm-.785.083c-.089.018-.18.042-.314.077l-.107.031c.18-.055.277-.084.42-.108zm-.421.108h.001l.004-.001zm5.175-.65l.052-.014-.293.09.114-.039.116-.033.011-.004zm.052-.014l.077-.02.036-.01a1.188 1.188 0 00-.113.03zm-1.214 3.767c.035.29.064.412.124.586-.028-.104-.06-.263-.124-.586zm.124.586c.017.05.036.104.06.167l.021.061c-.035-.085-.057-.136-.081-.228zM4.55 14.594L3.06 17.5l.04.342c.98.477 2.123.816 3.454 1.078l.915-4.661-2.92.335zm4.618 9.95l.223-.725-2.122 1.088 1.9-.363zm.223-.725l.788-2.564c.455.271.91.692 1.317 1.485l-2.105 1.08zm.788-2.564l.01-.03c-.111-.034-.149-.049-.08-.01l.07.04zm-7.447 5.213L-1.396 4.866l8.658 4.437c.094.048.508.174 1.122.294l3.407.67 2.55 22.174-6.944-2.135c-1.99-.612-3.425-1.42-4.354-3.232l-.311-.606zm5.4-11.658l-.68 4.268c.919.147 1.915.26 2.96.337l.352-4.737-2.632.132zm3.27 10.936l.477-4.201a11.75 11.75 0 01-1.284-.213l-1.065 4.63 1.871-.216zM5.194 29.84L2.765 8.712l6.182.985a26.38 26.38 0 002.169.244l4.183.311 1.066 21.365-5.56-.633a21.176 21.176 0 01-2.34-.393l-3.27-.752zm6.279-15.03l-.264 4.659c.803.045 1.624.07 2.446.075l.028-4.75-2.21.017zm2.297 11.438l.034-4.59a18.607 18.607 0 01-1.363-.058l-.384 4.734 1.713-.086zM7.52 30.73L6.472 9.684l5.276.299c.643.036 1.303.057 1.966.06l4.687.029.155 21.12-4.82-.035a28.095 28.095 0 01-2.061-.09l-4.152-.337zm9.271-15.955l-2.395.018.045 4.75a48.7 48.7 0 002.65-.097l-.3-4.67zm-2.314 11.443l1.726.087-.447-4.729c-.432.041-.893.067-1.375.078l.096 4.564zm2.174 4.816a28.32 28.32 0 01-2.07.117l-4.815.101-.155-21.164 4.74-.045c.719-.007 1.437-.033 2.131-.078l5.316-.341-1.057 21.023-4.09.387zm3.501-16.247l-2.65-.133.394 4.733a33.918 33.918 0 002.994-.375l-.738-4.225zm-3.306 10.87l1.931.216-1.214-4.592c-.324.086-.756.167-1.26.233l.543 4.142zm3.146 4.808c-.742.197-1.568.353-2.455.469l-5.647.74 1.077-21.41 4.141-.344c.792-.066 1.52-.157 2.149-.266l6.244-1.09-2.366 21.07-3.143.831zm-2.102-9.284c.002-.001.002-.001 0 0h0zm0 0l1.03 2.825-2.47-1.27c.385-.747.834-1.175 1.289-1.463.094-.06.141-.086.15-.092zm1.03 2.825l.223.61 1.532.292-1.754-.902zm4.413-9.531l-2.53-.284 1.004 4.643c1.229-.266 2.29-.606 3.208-1.076l-1.682-3.283zM24.9 27.08c-.835 1.623-2.086 2.415-3.752 3.024l-7.205 2.63 2.522-22.466 3.337-.721c.489-.106.812-.21.883-.246l8.657-4.434-4.129 21.604-.313.609zM19.582 8.987a12.82 12.82 0 01-.11.023l.237 1.179a3.19 3.19 0 01.114-.376l-.128-.843h0l-.113.017zm.127 1.202l.035.177a2.934 2.934 0 01-.06-.065l.025-.112zm.035.177l.108.536.144.05-.062-.406a2.903 2.903 0 01-.19-.18zm.108.536L20.274 13a2.908 2.908 0 01-.084-.113l-.395-2.005.057.021zM20.274 13l.069.343.018.012-.047-.305a2.902 2.902 0 01-.04-.05zm-.952-3.96c-.116.027-.247.06-.384.103l.703 2.263a3.698 3.698 0 01.043-1.104 3.129 3.129 0 01-.676-1.206c-.26.044-.535.085-.824.122 0 .245.018.492.055.74.462.401.99.712 1.556.924l-.368-1.862-.105.02zm.319 2.366l.37 1.196a3.241 3.241 0 01-.37-1.196zm.37 1.196l.202.647.057.042-.08-.404a2.943 2.943 0 01-.178-.285zM17.77 9.266l-.171.018c.136.173.283.335.439.486.406.003.814-.042 1.214-.136a1.532 1.532 0 01-.342.039 1.9 1.9 0 01-1.14-.407zm-.171.018c-.399.041-.82.075-1.261.102.276-.292.515-.616.714-.963.156.31.34.598.547.86zm-1.261.102l-.204.012.14.054.064-.066zm-5.847-.088a27.383 27.383 0 01-.349-.036c-.376.782-1.029 1.256-1.68 1.404a3.864 3.864 0 01-.043.463c-.02.138-.052.273-.094.404l-.204 1.136c.066-.04.13-.08.194-.122L9.39 9.223a5.275 5.275 0 00-.485-.132 16.031 16.031 0 01-.137-.024l-.358 1.995c.408.114.826.177 1.246.188.42-.59.701-1.258.835-1.952zm-2.081 1.764l-.085.47a2.606 2.606 0 01-.123.313l.147-.8.061.017zm.18-2.029a2.831 2.831 0 00-.11-.014l-.116.878c.053.17.085.35.095.545l.253-1.386a14.85 14.85 0 01-.121-.023zm-.333 1.67l-.04.301.132.04.067-.368c-.053.011-.106.02-.159.026zm-.182 1.381l-.088.662.056-.031.16-.87a2.673 2.673 0 01-.128.239zm.341-1.408l.043-.234c.004.073.005.147.003.224l-.046.01zm-.69-1.845a7.165 7.165 0 01-.03-.009l.05.058c.068.039.122.073.17.106l.02.013a5.632 5.632 0 01-.21-.168zm3.94 2.074a5.13 5.13 0 00.783-.382c-.497.297-.99.353-1.477.203.254.083.473.139.694.18zm.783-.382a5.087 5.087 0 000 0zm-1.477.203a1.985 1.985 0 01.039.014zm6.08-2.303l.004-.007a3.45 3.45 0 01-.163-.341c.05.119.102.235.159.348zm3.217.398c-.05.034-.094.065-.133.09.04-.026.023-.015.218-.114h0l-.085.024zm1.085 9.5l-.008.002-.112.023-.01.002c-2.006.391-4.496.608-7.251.608a48.152 48.152 0 01-3.478-.124 33.298 33.298 0 01-3.406-.414l-.316-.057-.024-.008c-1.414-.273-2.596-.634-3.54-1.128-.848-.444-2.2-1.56-2.71-2.198C-.658 13.589-1.24 11.505-.98 9.74a6.803 6.803 0 012.348-4.237c1.004-2.638 3.741-4.287 6.651-4.287.554 0 1.104.06 1.64.177 1.367-1.607 3.505-2.555 5.746-2.555 1.604 0 3.175.485 4.447 1.39 1.576.186 3.06.837 4.197 1.89 2.425.852 4.299 2.98 4.299 5.844v.018c.488.91.753 1.921.768 2.91a6.285 6.285 0 01-2.026 4.68c-.428.394-1.869 1.408-2.43 1.694h-.002c-.859.437-1.901.763-3.132 1.021l-.012.004-.161.032zm-6.02-9.754a4.713 4.713 0 00.005-.01zm7.038-.713a4.345 4.345 0 00-3.682.41c-.776.475-1.38 1.31-1.568 2.35a3.61 3.61 0 00.844 3.033c1.042 1.163 2.589 1.353 3.806.606h.001c.472-.29.885-.713 1.181-1.254.995-1.818.6-3.824-.582-5.145zm-5.125 7.683a5.133 5.133 0 01-.11-.12c-2.125-2.374-1.504-5.952 1.064-7.587a4.044 4.044 0 00-1.783 2.696 4.121 4.121 0 00.975 3.472c1.277 1.424 3.272 1.67 4.807.727a3.981 3.981 0 001.39-1.462c-1.277 2.307-4.005 3.154-6.294 2.292a5.11 5.11 0 01-.05-.018zM18.2 7.83a5.186 5.186 0 010 0z"/></g><path d="M129.436 107.306c-.004-.035-.006-.07-.02-.103-.435-1.073-1.643-1.585-2.694-1.142-.267.112-.505.279-.703.49a2.156 2.156 0 00-1.868-.088c-1.133.479-1.675 1.809-1.207 2.965a.375.375 0 00.49.208.385.385 0 00.203-.5c-.31-.767.049-1.648.8-1.966a1.437 1.437 0 011.441.191.374.374 0 00.288.07.374.374 0 00.248-.165 1.32 1.32 0 01.594-.498 1.305 1.305 0 011.715.727.376.376 0 00.197.203 2.482 2.482 0 00-.51.725.386.386 0 00.18.509c.187.09.41.008.498-.184.122-.264.31-.494.545-.667a1.669 1.669 0 012.357.394c.543.771.37 1.85-.386 2.405a.388.388 0 00-.086.534.372.372 0 00.523.088c1.092-.801 1.342-2.359.557-3.474a2.41 2.41 0 00-3.162-.722zm6.182-.162c.38-.407.584-.94.571-1.502a2.111 2.111 0 00-.636-1.474 2.036 2.036 0 00-2.916.066c-.2.213-.352.464-.45.738-.65-.044-1.283.2-1.742.69a.388.388 0 00.011.54.37.37 0 00.53-.01c.359-.383.88-.54 1.394-.42a.365.365 0 00.29-.054.383.383 0 00.163-.254c.044-.265.164-.507.346-.701a1.296 1.296 0 011.856-.042c.254.248.398.58.406.939.007.357-.122.697-.365.956a1.318 1.318 0 01-.247.2.385.385 0 00-.113.53.76.76 0 01-.085.93.388.388 0 00.012.54.367.367 0 00.53-.012c.394-.42.51-1.018.329-1.547.041-.037.08-.074.116-.113zm5.366-.23c.293-.436.45-.944.45-1.474 0-1.422-1.134-2.592-2.573-2.706-.52-1.209-1.738-2.003-3.112-2.003-.226 0-.45.021-.672.065-.572-1.101-1.722-1.796-3.017-1.796-1.866 0-3.384 1.467-3.384 3.27v.012a3.369 3.369 0 00-2.5.41 3.237 3.237 0 00-1.892-.606c-1.751 0-3.177 1.378-3.177 3.072 0 .172.015.344.045.513-1.148.393-1.97 1.484-2.138 2.883-.094.785.294 2.582 1.335 3.481l2.349 15.144c0 .008-.005.013-.005.022 0 .993 1.098 1.748 2.687 2.244.011.006.024.008.035.012.813.25 1.752.434 2.738.547.008.001.014.005.022.005l.015-.001c.772.088 1.571.132 2.362.132l.16-.001H130.722c1.924-.015 3.89-.292 5.355-.81.012-.004.024-.007.035-.012 1.378-.495 2.3-1.205 2.3-2.116 0-.008-.003-.015-.004-.023l2.385-15.302c.966-.476 1.465-1.643 1.453-2.541-.009-.665-.392-1.89-1.261-2.42zm-17.49 20.51l-2.288-14.761c.602.38 1.466.695 2.499.945l1.393 14.93c-.872-.33-1.441-.723-1.603-1.113zm2.381 1.369l-1.401-15.017c.831.163 1.743.29 2.7.377l.609 15.033c-.706-.1-1.347-.234-1.908-.393zm2.661.482l-.61-15.061c.761.053 1.54.083 2.322.088l.09 15.068a19.976 19.976 0 01-1.802-.095zm4.365-.036c-.57.066-1.177.11-1.813.126l-.09-15.063c.85-.01 1.697-.049 2.518-.114l-.615 15.05zm2.71-.56c-.56.182-1.22.336-1.955.455l.613-15.013a25.28 25.28 0 002.707-.416l-1.365 14.973zm1.998-1.253c-.137.328-.564.66-1.218.953l1.354-14.859c.88-.234 1.62-.52 2.153-.857l-2.289 14.763zm1.927-15.411c-.462.29-1.21.578-2.209.825-.022.004-.044.008-.065.016-1.63.396-3.91.683-6.71.683-.99 0-1.91-.037-2.765-.101l-.53-.042a24.692 24.692 0 01-3.07-.458.349.349 0 00-.074-.017c-1.192-.27-2.069-.597-2.576-.925-.336-.216-1.203-1.144-1.274-1.253-.376-.576-.57-1.565-.506-2.096.148-1.233.883-2.124 1.919-2.327a.375.375 0 00.252-.181.389.389 0 00.033-.313 2.196 2.196 0 01-.104-.669c0-1.272 1.089-2.307 2.427-2.307a2.49 2.49 0 011.633.604.37.37 0 00.463.018 2.636 2.636 0 012.583-.297.369.369 0 00.382-.057.387.387 0 00.13-.372 2.442 2.442 0 01-.049-.476c0-1.382 1.182-2.505 2.634-2.505 1.086 0 2.074.65 2.46 1.618.072.181.266.277.45.224.254-.074.515-.112.779-.112 1.147 0 2.15.698 2.499 1.738a.375.375 0 00.4.256c1.125.009 2.037.88 2.037 1.95 0 .508-.206.99-.581 1.357a.388.388 0 00-.101.382c.039.136.148.24.285.268.79.166 1.2 1.306 1.207 1.897.006.46-.175 1.045-.52 1.434-.104.118-1.244 1.116-1.44 1.238zm-3.389-3.667c-.228.173-.41.403-.527.666a.386.386 0 00.187.507c.189.087.41.002.496-.19a.929.929 0 01.29-.368.907.907 0 011.284.194.945.945 0 01-.19 1.31.388.388 0 00-.078.535.372.372 0 00.524.08c.358-.271.591-.668.657-1.117a1.717 1.717 0 00-.31-1.263 1.648 1.648 0 00-2.333-.354z" stroke="#00487C" fill="#00487C"/></g><g stroke="#00487C"><path stroke-width="2" d="M204 91l-14.657-6L175 90.74M189 78c1.105 0 2 1.12 2 2.5s-.895 2.5-2 2.5"/><path d="M186 80c0-1.105 1.12-2 2.5-2s2.5.895 2.5 2" stroke-width="2"/><path d="M190 86v-2"/></g><path d="M196.47 143h-13.813L171 141.954 180.693 113h16.473L208 141.954 196.47 143zm-15.346-52a7.703 7.703 0 007.591 6.376c3.733 0 6.832-2.678 7.528-6.185L202 93.104 196.623 110h-16.385L176 93.04l5.124-2.04zM194 91c-.57 2.323-2.595 4-5 4s-4.494-1.742-5-4h10zm16.808 52.249c.19-.324.253-.778.126-1.167l-11.57-30.673 5.88-18.935c.19-.648-.127-1.426-.822-1.62l-8.093-2.79c-.127 0-.253-.064-.38-.064h-14.163c-.19 0-.316 0-.442.065l-6.829 2.788c-.569.26-.948.908-.759 1.557l4.68 19-10.37 30.737c-.127.389-.063.778.126 1.102.19.324.57.584.949.584L182.419 145h14.163l13.277-1.167c.38 0 .76-.26.949-.584z" fill="#00487C" fill-rule="nonzero"/></g></svg>