<svg width="380" height="191" xmlns="http://www.w3.org/2000/svg"><defs><linearGradient x1="50%" y1="100%" x2="50%" y2="1.921%" id="a"><stop stop-color="#FFF" offset="0%"/><stop stop-color="#EEF9FF" offset="100%"/></linearGradient><linearGradient x1="50%" y1="100%" x2="50%" y2="0%" id="b"><stop stop-color="#FFF" offset="0%"/><stop stop-color="#EEF9FF" stop-opacity=".986" offset="100%"/></linearGradient></defs><g fill="none" fill-rule="evenodd"><path d="M3.588 11.366c0 .715.099 1.391.224 2.068C1.509 15.23 0 18.024 0 21.184 0 26.597 4.366 31 9.738 31h22.549C37.093 31 41 27.063 41 22.217a8.782 8.782 0 00-6.583-8.51c.255-.736.432-1.513.432-2.34 0-3.988-3.218-7.234-7.173-7.234-1.277 0-2.45.379-3.492.969C22.164 2.049 18.774 0 14.863 0 8.642 0 3.588 5.096 3.588 11.366z" stroke="#979797" fill="url(#a)" fill-rule="nonzero" transform="translate(274 57)"/><path d="M288.863 57c-6.221 0-11.275 5.096-11.275 11.366 0 .715.099 1.391.224 2.068-2.303 1.796-3.812 4.59-3.812 7.75 0 5.414 4.366 9.816 9.738 9.816h22.549c4.806 0 8.713-3.937 8.713-8.783a8.782 8.782 0 00-6.583-8.51c.255-.736.432-1.513.432-2.34 0-3.988-3.218-7.234-7.173-7.234-1.277 0-2.45.379-3.492.969-2.02-3.053-5.41-5.102-9.321-5.102z" stroke="#00487C" stroke-width="2.2"/><circle stroke="#FCB61A" stroke-width="3.5" fill="#FFF" fill-rule="nonzero" cx="190.5" cy="116.5" r="61.5"/><path d="M220.527 112.327l-4.968-3.68V92.252a1.17 1.17 0 00-1.17-1.168H202.98a1.17 1.17 0 00-1.17 1.168v6.21l-11.112-8.232a1.173 1.173 0 00-1.396 0l-29.83 22.097a1.166 1.166 0 00-.241 1.634 1.173 1.173 0 001.638.24l3.57-2.643v12.439a1.17 1.17 0 001.17 1.167c.647 0 1.17-.522 1.17-1.167v-14.174l23.22-17.2 23.22 17.199v.593l.002.029v26.22h-13.852v-10.262c0-5.152-4.203-9.343-9.369-9.343-5.166 0-9.368 4.191-9.368 9.343v10.263h-15.023a1.17 1.17 0 00-1.17 1.168 1.17 1.17 0 001.17 1.167h48.783a1.17 1.17 0 001.17-1.167v-26.274l3.569 2.643a1.168 1.168 0 001.638-.241 1.165 1.165 0 00-.242-1.634zM183 125.898c0-3.804 3.14-6.898 7-6.898s7 3.094 7 6.898V136h-14v-10.102zm21-26.37V93h9v13l-9-6.471z" stroke="#00487C" stroke-width=".5" fill="#00487C" fill-rule="nonzero"/><path d="M196 106.5c0-3.032-2.467-5.5-5.5-5.5a5.506 5.506 0 00-5.5 5.5c0 3.033 2.467 5.5 5.5 5.5s5.5-2.467 5.5-5.5zm-9-.5c0-1.654 1.346-3 3-3s3 1.346 3 3-1.346 3-3 3-3-1.346-3-3z" stroke="#FFB81C" stroke-width=".7" fill="#FFB81C" fill-rule="nonzero"/><circle fill="#FFB81C" fill-rule="nonzero" cx="193.5" cy="129.5" r="1.5"/><path d="M176.917 137.089a1.084 1.084 0 00-.224-.345l-.006-.008-5.343-5.42a1.052 1.052 0 00-1.503 0 1.089 1.089 0 000 1.525l3.53 3.581h-10.308a1.07 1.07 0 00-1.063 1.079c0 .594.476 1.078 1.063 1.078h10.305l-3.53 3.58a1.087 1.087 0 000 1.525 1.053 1.053 0 001.503 0l5.339-5.416c.104-.101.185-.224.24-.361l.003-.012c.048-.123.077-.256.077-.395v-.004c0-.136-.03-.267-.074-.388-.005-.005-.005-.012-.009-.02z" fill="#FFB81C" fill-rule="nonzero" stroke="#FFB81C" stroke-width="1.5"/><g><path d="M49.306 37h-38.4C4.848 37 0 32.01 0 25.947c0-5.066 3.408-9.52 8.179-10.748 1.743-3.992 5.606-6.603 9.997-6.603 1.138 0 2.198.155 3.257.538C23.101 3.76 28.023 0 33.63 0c7.043 0 12.724 5.834 12.724 12.896 0 .69-.077 1.382-.152 2.072.605-.076 1.286-.152 1.893-.152 6.06 0 10.906 4.988 10.906 11.053 0 5.297-3.71 9.825-8.786 10.9l-.908.231z" fill="url(#b)" fill-rule="nonzero" transform="translate(29 27)"/><path d="M78.306 64h-38.4C33.848 64 29 59.01 29 52.947c0-5.066 3.408-9.52 8.179-10.748 1.743-3.992 5.606-6.603 9.997-6.603 1.138 0 2.198.155 3.257.538C52.101 30.76 57.023 27 62.63 27c7.043 0 12.724 5.834 12.724 12.896 0 .69-.077 1.382-.152 2.072.605-.076 1.286-.152 1.893-.152 6.06 0 10.906 4.988 10.906 11.053 0 5.297-3.71 9.825-8.786 10.9l-.908.231z" stroke="#00487C" stroke-width="2.2"/></g></g></svg>