<svg width="8" height="15" viewBox="0 0 8 15" fill="none" xmlns="http://www.w3.org/2000/svg">
<path d="M6.75763 14.3218L0.212913 7.77709C0.0765855 7.64073 3.25903e-07 7.4558 3.17475e-07 7.26297C3.09046e-07 7.07015 0.0765855 6.88522 0.212913 6.74885L6.75763 0.204131C6.89478 0.071667 7.07847 -0.00162966 7.26913 2.7172e-05C7.4598 0.00168401 7.64219 0.0781617 7.77702 0.212989C7.91184 0.347816 7.98832 0.530204 7.98998 0.720872C7.99164 0.911539 7.91834 1.09523 7.78588 1.23238L1.75456 7.26224L7.78588 13.2921C7.85373 13.3594 7.90758 13.4395 7.94433 13.5278C7.98108 13.616 8 13.7106 8 13.8062C8 13.9018 7.98108 13.9965 7.94433 14.0847C7.90758 14.1729 7.85373 14.253 7.78588 14.3204C7.64951 14.4567 7.46458 14.5333 7.27175 14.5333C7.07893 14.5333 6.894 14.4581 6.75763 14.3218Z" fill="#2D3269"/>
</svg>
