<svg width="53" height="53" viewBox="0 0 53 53" fill="none" xmlns="http://www.w3.org/2000/svg">
<circle cx="26.5" cy="26.5" r="26.5" fill="#2D3269"/>
<path fill-rule="evenodd" clip-rule="evenodd" d="M34.1744 12.3004C33.0636 12.3 31.971 12.5834 31.0003 13.1236C30.0297 13.6638 29.213 14.4429 28.6278 15.3871C28.0425 16.3313 27.7081 17.4094 27.6562 18.5191C27.6043 19.6288 27.8366 20.7333 28.3311 21.7281C28.5767 22.2193 28.6765 22.8179 28.5153 23.4196L28.127 24.8717L29.579 24.4833C30.1464 24.3366 30.7479 24.4021 31.2704 24.6675C32.151 25.1045 33.119 25.3369 34.102 25.3471C35.085 25.3574 36.0577 25.1454 36.9472 24.7268C37.8368 24.3083 38.6202 23.6941 39.239 22.9302C39.8578 22.1663 40.296 21.2724 40.5207 20.3153C40.7454 19.3582 40.751 18.3627 40.5368 17.4032C40.3227 16.4437 39.8945 15.5449 39.2843 14.7742C38.674 14.0035 37.8974 13.3806 37.0126 12.9522C36.1277 12.5239 35.1575 12.301 34.1744 12.3004ZM25.3488 18.824C25.3493 16.9046 25.9753 15.0377 27.1321 13.5062C28.2889 11.9747 29.9134 10.8621 31.7594 10.3369C33.6054 9.81166 35.5723 9.90255 37.362 10.5958C39.1517 11.289 40.6666 12.5467 41.6773 14.1784C42.6879 15.81 43.1391 17.7267 42.9626 19.6379C42.786 21.5491 41.9913 23.3506 40.6988 24.7695C39.4064 26.1884 37.6867 27.1473 35.8003 27.5009C33.9139 27.8545 31.9636 27.5835 30.2451 26.729C30.2259 26.7189 30.2052 26.7122 30.1837 26.709H30.173L28.4662 27.1649C28.1019 27.2626 27.7183 27.2626 27.354 27.1651C26.9897 27.0675 26.6575 26.8758 26.3907 26.6092C26.1239 26.3426 25.932 26.0105 25.8343 25.6462C25.7366 25.2819 25.7364 24.8983 25.8339 24.534L26.2913 22.8256V22.8148C26.2876 22.7933 26.2803 22.7725 26.2698 22.7534C25.6624 21.5327 25.3471 20.1875 25.3488 18.824ZM13.7881 14.3603C15.6699 12.3802 18.7826 12.7501 20.339 14.9513L22.2729 17.6881C23.5177 19.4487 23.4133 21.8939 21.9276 23.4595L21.5515 23.854C21.5515 23.8571 21.5515 23.8601 21.5485 23.8632C21.5285 23.92 21.4794 24.0965 21.5285 24.4342C21.6313 25.1341 22.1701 26.554 24.3619 28.861C26.5599 31.1757 27.8921 31.7222 28.5107 31.8219C28.6597 31.8553 28.8147 31.8516 28.9619 31.8112L29.5882 31.1512C30.9297 29.739 33.0202 29.4612 34.707 30.4313L37.6386 32.1197C40.1451 33.5626 40.7284 37.0914 38.7253 39.2004L36.5458 41.4952C35.8659 42.212 34.9372 42.8245 33.7907 42.9381C30.9911 43.2143 24.5062 42.8536 17.7082 35.6961C11.363 29.016 10.1581 23.2062 10.0061 20.3681C9.93093 18.9652 10.5556 17.7633 11.3783 16.8976L13.7881 14.3603ZM18.4587 16.279C17.6729 15.1677 16.2593 15.1017 15.4565 15.9459L13.0467 18.4832C12.5402 19.0189 12.2716 19.6313 12.3054 20.2453C12.4282 22.5631 13.4274 27.8464 19.3766 34.1105C25.6144 40.6786 31.3625 40.8643 33.5651 40.6464C33.9994 40.6034 34.4476 40.3609 34.8759 39.9096L37.0554 37.6148C37.9978 36.6248 37.7507 34.8396 36.4906 34.1151L33.5589 32.4267C32.7715 31.9739 31.8491 32.1136 31.2581 32.7368L30.5598 33.4735L29.7248 32.68C30.5582 33.4735 30.5582 33.4735 30.5567 33.4751L30.5552 33.4781L30.5506 33.4827L30.5398 33.492L30.5183 33.5134C30.4539 33.5768 30.3841 33.6343 30.3096 33.6854C30.1868 33.7729 30.0241 33.8696 29.8169 33.9494C29.3932 34.1182 28.8346 34.2072 28.1423 34.0952C26.7947 33.8757 25.0296 32.9087 22.6935 30.4466C20.3482 27.9784 19.4503 26.138 19.2507 24.7673C19.155 24.2065 19.1993 23.6307 19.3797 23.0911C19.4632 22.8559 19.5822 22.6349 19.7327 22.4357L19.7787 22.3789L19.8002 22.3559L19.8094 22.3467L19.814 22.3421L19.8171 22.339C19.8171 22.339 19.8186 22.3375 20.6536 23.1295L19.8186 22.3375L20.2592 21.8739C20.9422 21.1525 21.042 19.9337 20.3942 19.0189L18.4587 16.279Z" fill="white"/>
</svg>
