<?xml version="1.0" encoding="utf-8"?>
<!-- Generator: Adobe Illustrator 22.1.0, SVG Export Plug-In . SVG Version: 6.00 Build 0)  -->
<svg version="1.1" id="Layer_1" xmlns="http://www.w3.org/2000/svg" xmlns:xlink="http://www.w3.org/1999/xlink" x="0px" y="0px"
	 viewBox="0 0 16 24" style="enable-background:new 0 0 16 24;" xml:space="preserve">
<style type="text/css">
	.st0{fill:#FFFFFF;}
</style>
<g>
	<g>
		<path class="st0" d="M0.3,10c0.6,3.5,2.2,6.8,4.4,9.5c4.2,5.1,8.7,5.8,11.1,2.3c0.3-0.4,0.2-0.8-0.1-1.2c-1.4-1.7-3-3-4.7-3.9
			c-0.4-0.2-0.9-0.1-1.2,0.2c-0.3,0.4-0.6,0.8-0.9,1.4c-0.2,0.3-0.7,0.4-1,0.2c-0.6-0.5-1.1-1.1-1.7-1.9C5,14.9,4.1,13,3.6,10.9
			C3.3,9.9,3.2,9,3.2,8.3c0-0.4,0.3-0.7,0.7-0.6C4.5,7.8,5,7.8,5.5,7.8s0.9-0.3,1-0.8c0.4-1.9,0.4-4,0-6.2c0-0.4-0.4-0.7-0.8-0.8
			C1.5-0.4-0.9,3.6,0.3,10"/>
	</g>
</g>
</svg>
